<svg width="583" height="211" viewBox="0 0 583 211" fill="none" xmlns="http://www.w3.org/2000/svg">
<path d="M560.836 140.497L582.14 145.99L582.331 145.248L582.47 144.494L560.836 140.497ZM556.752 156.336L578.016 161.98L578.036 161.905L578.056 161.829L556.752 156.336ZM553.432 160.315L550.382 138.527L553.432 160.315ZM552.346 160.345L556.343 138.712L554.983 138.46L553.602 138.381L552.346 160.345ZM519.759 119.71L541.482 116.231L538.248 96.039L517.874 97.7909L519.759 119.71ZM510.779 120.482L511.843 142.456L512.254 142.436L512.664 142.401L510.779 120.482ZM508.036 118.2L486.085 119.671L486.139 120.463L486.249 121.25L508.036 118.2ZM506.701 98.2729L484.727 99.3372L484.737 99.5405L484.75 99.7435L506.701 98.2729ZM508.983 95.5302L507.299 73.5947L506.614 73.6473L505.934 73.7425L508.983 95.5302ZM516.656 94.941L518.34 116.876L540.492 115.175L538.573 93.041L516.656 94.941ZM515.458 80.3259L493.493 81.5554L493.501 81.7035L493.511 81.8515L515.458 80.3259ZM518.389 76.1595L521.438 97.9471L521.438 97.9471L518.389 76.1595ZM518.864 76.0929L516.855 54.1849L516.333 54.2327L515.815 54.3053L518.864 76.0929ZM541.475 74.0189L539.71 52.0898L539.588 52.0996L539.466 52.1108L541.475 74.0189ZM544.912 76.9306L566.82 74.921L566.772 74.3997L566.7 73.8812L544.912 76.9306ZM546.09 92.2754L524.141 93.7647L525.65 116.01L547.874 114.203L546.09 92.2754ZM554.357 91.6031L556.14 113.531L556.775 113.479L557.406 113.391L554.357 91.6031ZM557.1 93.885L579.05 92.4144L578.997 91.6221L578.887 90.8356L557.1 93.885ZM558.435 113.812L580.417 112.946L580.406 112.644L580.385 112.342L558.435 113.812ZM556.374 116.403L559.423 138.191L559.423 138.191L556.374 116.403ZM556.136 116.436L558.193 138.34L558.69 138.293L559.185 138.224L556.136 116.436ZM548.243 117.177L546.186 95.2738L523.264 97.4263L526.455 120.227L548.243 117.177ZM557.875 137.519L564.115 116.422L563.914 116.363L563.713 116.307L557.875 137.519ZM560.941 139.513L539.153 142.562L560.941 139.513ZM449.984 182.186L470.73 174.864L470.645 174.623L470.554 174.384L449.984 182.186ZM444.704 168.266L423.833 175.223L423.975 175.649L424.134 176.069L444.704 168.266ZM448.304 165.266V187.266H448.491L448.677 187.263L448.304 165.266ZM455.504 153.266L472.87 139.76L472.385 139.136L471.857 138.549L455.504 153.266ZM452.264 149.666L435.749 164.2L435.83 164.292L435.912 164.383L452.264 149.666ZM486.824 115.826L507.335 107.869L507.332 107.861L507.328 107.852L486.824 115.826ZM492.224 129.746L471.713 137.703L472.086 138.663L472.547 139.585L492.224 129.746ZM485.504 146.906L469.19 161.666L469.252 161.734L469.314 161.801L485.504 146.906ZM295.762 172.209L301.135 150.875L300.546 150.727L299.949 150.611L295.762 172.209ZM272.282 167.656L266.909 188.99L267.498 189.139L268.095 189.254L272.282 167.656ZM270.309 164.684L291.642 170.058L291.787 169.484L291.9 168.903L270.309 164.684ZM282.291 103.354L260.958 97.9801L260.813 98.5541L260.7 99.135L282.291 103.354ZM285.264 101.38L279.89 122.713L280.441 122.852L280.999 122.962L285.264 101.38ZM298.938 104.081L294.674 125.664L297.422 126.207L300.219 126.044L298.938 104.081ZM317.824 105.745L312.45 127.078L317.824 105.745ZM328.905 109.897L339.594 90.6682L339.224 90.4623L338.846 90.2709L328.905 109.897ZM330.645 113.305L309.312 107.932L330.645 113.305ZM330.032 114.759L349.845 124.321L349.871 124.267L349.897 124.212L330.032 114.759ZM322.524 130.317L342.258 140.041L342.299 139.96L342.338 139.878L322.524 130.317ZM319 132.028L313.626 153.362L313.626 153.362L319 132.028ZM317.778 131.473L306.286 150.233L306.829 150.565L307.391 150.866L317.778 131.473ZM312.194 129.076L317.568 107.743L312.194 129.076ZM306.898 128.485L306.937 106.485L288.79 106.453L285.307 124.263L306.898 128.485ZM298.734 170.235L320.067 175.609L320.211 175.037L320.325 174.458L298.734 170.235ZM298.675 170.468L277.342 165.094L277.341 165.094L298.675 170.468ZM233.773 167.403L255.654 165.109L255.554 164.159L255.372 163.222L233.773 167.403ZM233.836 168L211.956 170.295L211.956 170.295L233.836 168ZM230.927 171.322L228.632 149.442L227.899 149.519L227.173 149.644L230.927 171.322ZM208.747 174.975L211.041 196.855L211.041 196.855L208.747 174.975ZM208.508 175L206.214 153.12L206.213 153.12L208.508 175ZM205.08 172.222L183.31 175.398L183.359 175.735L183.419 176.07L205.08 172.222ZM198.971 131.236L220.787 128.391L218.162 108.269L197.894 109.262L198.971 131.236ZM190.329 131.66L190.633 153.658L191.019 153.652L191.406 153.633L190.329 131.66ZM187.666 129.284L165.678 129.995L165.703 130.789L165.786 131.579L187.666 129.284ZM187.021 109.323L165.023 109.627L165.026 109.831L165.032 110.034L187.021 109.323ZM189.396 106.661L188.235 84.6913L187.667 84.7213L187.101 84.7806L189.396 106.661ZM196.356 106.293L197.517 128.262L218.853 127.134L218.35 105.774L196.356 106.293ZM196.251 101.839L174.251 101.887L174.251 102.122L174.257 102.358L196.251 101.839ZM227.003 68.3292L224.709 46.4492L227.003 68.3292ZM232.307 71.1035L227.971 92.672L228.792 92.837L229.623 92.9392L232.307 71.1035ZM242.233 72.0409L250.69 92.3506L265.823 86.0494L264.113 69.7464L242.233 72.0409ZM234.878 75.1035L226.422 54.7939L203.009 64.5426L215.967 86.3438L234.878 75.1035ZM241.562 86.349L263.558 86.786L263.683 80.5072L260.474 75.1087L241.562 86.349ZM238.188 89.84L240.482 111.72L240.482 111.72L238.188 89.84ZM237.83 89.8775L235.535 67.9975L235.535 67.9975L237.83 89.8775ZM224.671 104.771L202.791 107.066L204.955 127.696L225.677 126.748L224.671 104.771ZM234.878 104.304L235.884 126.281L236.53 126.251L237.173 126.184L234.878 104.304ZM237.541 106.679L259.529 105.968L259.503 105.175L259.421 104.385L237.541 106.679ZM238.186 126.641L260.186 126.535L260.184 126.232L260.175 125.93L238.186 126.641ZM236.037 129.159L233.742 107.279L233.742 107.279L236.037 129.159ZM235.798 129.184L237.154 151.142L237.624 151.113L238.093 151.064L235.798 129.184ZM227.407 129.702L226.051 107.744L202.257 109.213L205.628 132.812L227.407 129.702ZM155.575 181.674L150.334 203.04L150.866 203.171L151.403 203.274L155.575 181.674ZM132.237 175.949L125.936 197.028L126.462 197.185L126.996 197.316L132.237 175.949ZM132.007 175.881L138.308 154.802L138.308 154.802L132.007 175.881ZM130.395 172.894L109.021 167.682L108.919 168.102L108.833 168.527L130.395 172.894ZM144.259 116.043L123.18 109.742L123.019 110.282L122.885 110.831L144.259 116.043ZM147.314 114.201L152.555 92.8342L152.2 92.7472L151.843 92.6721L147.314 114.201ZM170.653 119.925L176.954 98.8469L176.427 98.6894L175.893 98.5584L170.653 119.925ZM170.882 119.994L164.581 141.072L164.581 141.072L170.882 119.994ZM172.414 122.831L151.336 116.53L151.174 117.07L151.041 117.617L172.414 122.831ZM158.516 179.797L179.594 186.098L179.755 185.559L179.889 185.012L158.516 179.797ZM158.447 180.027L179.525 186.328L179.525 186.328L158.447 180.027ZM180.543 102.341L201.621 108.642L180.543 102.341ZM158.59 114.19L164.891 93.1116L164.891 93.1116L158.59 114.19ZM131.881 95.5302L152.959 101.831L131.881 95.5302ZM168.729 80.273L175.03 59.1946L175.03 59.1946L168.729 80.273ZM51 172.894L29.7677 178.655L30.1552 180.083L30.7305 181.446L51 172.894ZM28.71 90.7401L6.71004 90.7407L6.71012 93.6719L7.47767 96.5008L28.71 90.7401ZM28.71 89.5L50.71 89.4994L50.7099 87.2715L50.2632 85.0888L28.71 89.5ZM30.2749 87.6003L34.6862 109.153L35.3359 109.021L35.9764 108.849L30.2749 87.6003ZM43.7438 83.9862L49.4453 105.235L52.9098 104.305L55.8997 102.323L43.7438 83.9862ZM67.0715 74.6798L71.4828 96.233L67.0715 74.6798ZM112.85 96.6673L134.403 92.2561L112.85 96.6673ZM107.931 117.517L90.0208 104.741L75.4085 125.224L97.6586 136.972L107.931 117.517ZM117.639 125.452L99.4401 137.813L99.5407 137.961L99.6436 138.108L117.639 125.452ZM123.2 137.665L144.754 133.253L123.2 137.665ZM82.1266 178.163L86.5378 199.716L82.1266 178.163ZM61.5836 99.933L52.6019 79.85L35.6308 87.44L40.2838 105.439L61.5836 99.933ZM66.8764 120.408L45.5766 125.914L51.0264 146.995L72.163 141.763L66.8764 120.408ZM84.5069 105.408L62.9537 109.819L84.5069 105.408ZM68.0228 97.8802L63.6116 76.327L68.0228 97.8802ZM71.5464 138.437L64.4959 117.598L45.1205 124.153L50.2492 143.954L71.5464 138.437ZM76.2164 156.467L54.9192 161.983L59.4597 179.513L77.5352 178.428L76.2164 156.467ZM80.9911 155.857L85.4023 177.411L85.4023 177.411L80.9911 155.857ZM94.0662 143.137L72.513 147.549L72.513 147.549L94.0662 143.137ZM77.7051 136.809L73.2939 115.256L77.7051 136.809ZM131.881 71.3907L146.917 55.3311L146.917 55.3311L131.881 71.3907ZM130.041 69.6683L110.732 59.1244C105.924 67.9291 107.682 78.8714 115.005 85.7279L130.041 69.6683ZM105.072 73.6878L120.108 57.6283C120.104 57.6245 120.1 57.6208 120.096 57.6171L105.072 73.6878ZM118.211 85.9903L133.247 69.9307L133.247 69.9307L118.211 85.9903ZM411.004 175.714C409.513 187.773 418.081 198.756 430.139 200.247C442.198 201.737 453.181 193.17 454.671 181.111L411.004 175.714ZM434.919 161.57L456.753 164.269C458.243 152.21 449.676 141.227 437.617 139.736L434.919 161.57ZM420.775 137.655C408.716 136.165 397.733 144.732 396.243 156.79C394.752 168.849 403.32 179.832 415.378 181.323L420.775 137.655ZM427.295 172.028C428.785 159.969 420.217 148.986 408.159 147.496C396.1 146.005 385.117 154.573 383.627 166.631L427.295 172.028ZM403.379 186.172L381.545 183.474C380.055 195.532 388.622 206.516 400.681 208.006L403.379 186.172ZM417.523 210.087C429.582 211.577 440.565 203.01 442.056 190.952C443.546 178.893 434.978 167.91 422.92 166.419L417.523 210.087ZM482.014 61.7397L502.244 53.0924L482.014 61.7397ZM448.912 75.8899L428.683 84.5372L428.683 84.5372L448.912 75.8899ZM507.746 65.9655C502.971 54.7932 490.042 49.6078 478.87 54.3836C467.698 59.1594 462.512 72.0879 467.288 83.2602L507.746 65.9655ZM474.644 80.1157C469.868 68.9434 456.94 63.758 445.767 68.5338C434.595 73.3095 429.41 86.238 434.185 97.4104L474.644 80.1157ZM459.918 101.636L480.147 92.9889L480.147 92.9889L459.918 101.636ZM493.02 87.486L472.791 96.1334L472.791 96.1334L493.02 87.486ZM539.533 135.004L535.449 150.843L578.056 161.829L582.14 145.99L539.533 135.004ZM535.489 150.691C535.518 150.581 535.672 150.01 536.031 149.183C536.39 148.353 537.079 146.976 538.297 145.444C539.57 143.841 541.34 142.174 543.674 140.837C546.008 139.499 548.345 138.812 550.382 138.527L556.481 182.102C562.999 181.19 568.733 177.868 572.748 172.813C576.071 168.63 577.413 164.251 578.016 161.98L535.489 150.691ZM550.382 138.527C550.054 138.573 550.78 138.458 551.665 138.409C552.694 138.351 554.345 138.342 556.343 138.712L548.349 181.979C550.719 182.417 552.735 182.418 554.125 182.34C555.37 182.27 556.453 182.106 556.481 182.102L550.382 138.527ZM553.602 138.381C550.263 138.19 548.742 137.703 548.186 137.469C547.89 137.344 547.817 137.302 547.561 136.987C546.364 135.512 543.793 130.66 541.482 116.231L498.036 123.189C500.527 138.743 504.416 153.647 513.395 164.712C523.75 177.472 537.634 181.54 551.089 182.31L553.602 138.381ZM517.874 97.7909L508.894 98.563L512.664 142.401L521.643 141.629L517.874 97.7909ZM509.715 98.5079C519.907 98.0142 528.451 105.34 529.824 115.151L486.249 121.25C487.988 133.675 499.003 143.078 511.843 142.456L509.715 98.5079ZM529.987 116.73L528.652 96.8024L484.75 99.7435L486.085 119.671L529.987 116.73ZM528.676 97.2086C529.139 106.77 522.344 115.875 512.033 117.318L505.934 73.7425C492.77 75.585 484.136 87.1278 484.727 99.3372L528.676 97.2086ZM510.667 117.466L518.34 116.876L514.971 73.0056L507.299 73.5947L510.667 117.466ZM538.573 93.041C538.169 88.3814 537.747 83.722 537.405 78.8003L493.511 81.8515C493.886 87.25 494.353 92.4022 494.738 96.8411L538.573 93.041ZM537.424 79.0964C537.349 77.7631 537.941 82.0381 535.859 86.7531C534.57 89.6717 532.396 92.5983 529.233 94.8126C526.212 96.9277 523.3 97.6865 521.438 97.9471L515.34 54.3718C507.497 55.4695 499.518 60.1281 495.61 68.9746C492.815 75.304 493.486 81.446 493.493 81.5554L537.424 79.0964ZM521.438 97.9471L521.914 97.8806L515.815 54.3053L515.34 54.3718L521.438 97.9471ZM520.874 98.001L543.485 95.9269L539.466 52.1108L516.855 54.1849L520.874 98.001ZM543.24 95.948C540.139 96.1975 534.487 95.6752 529.4 91.2437C524.618 87.0778 523.423 82.114 523.124 79.98L566.7 73.8812C566.118 69.7269 564.223 63.2253 558.302 58.0676C552.077 52.6443 544.848 51.6763 539.71 52.0898L543.24 95.948ZM523.004 78.9402C523.439 83.6866 523.8 88.7438 524.141 93.7647L568.04 90.7861C567.696 85.7246 567.306 80.2239 566.82 74.921L523.004 78.9402ZM547.874 114.203L556.14 113.531L552.573 69.6755L544.307 70.3478L547.874 114.203ZM557.406 113.391C544.712 115.167 536.507 105.473 535.312 96.9343L578.887 90.8356C577.293 79.4444 566.616 67.6728 551.307 69.8155L557.406 113.391ZM535.149 95.3555L536.484 115.283L580.385 112.342L579.05 92.4144L535.149 95.3555ZM536.452 114.679C536.134 106.613 541.54 96.2646 553.324 94.6153L559.423 138.191C573.822 136.175 580.83 123.421 580.417 112.946L536.452 114.679ZM553.324 94.6153L553.087 94.6485L559.185 138.224L559.423 138.191L553.324 94.6153ZM554.079 94.5326L546.186 95.2738L550.299 139.081L558.193 138.34L554.079 94.5326ZM526.455 120.227C527.288 126.18 528.628 133.233 531.341 139.533C533.936 145.559 539.779 155.356 552.037 158.73L563.713 116.307C566.895 117.183 569.131 118.908 570.421 120.308C571.563 121.547 571.877 122.418 571.753 122.129C571.65 121.89 571.369 121.138 571.02 119.657C570.68 118.213 570.347 116.389 570.03 114.128L526.455 120.227ZM551.635 158.615C551.959 158.711 552.297 158.806 552.392 158.833C552.554 158.879 552.526 158.872 552.444 158.847C552.369 158.824 551.361 158.524 550.054 157.873C548.73 157.214 546.283 155.8 543.959 153.12C541.409 150.18 539.706 146.512 539.153 142.562L582.729 136.464C582.084 131.861 580.126 127.668 577.202 124.295C574.503 121.183 571.561 119.429 569.667 118.486C567.79 117.552 566.138 117.024 565.385 116.793C565.205 116.737 563.375 116.203 564.115 116.422L551.635 158.615ZM539.153 142.562C538.923 140.913 538.937 139.592 538.965 138.867C538.995 138.09 539.063 137.487 539.105 137.164C539.175 136.612 539.264 136.167 539.203 136.5L582.47 144.494C582.478 144.454 582.635 143.636 582.749 142.745C582.824 142.157 583.168 139.605 582.729 136.464L539.153 142.562ZM455.864 162.706H454.544V206.706H455.864V162.706ZM454.544 162.706C454.544 162.706 454.578 162.706 454.639 162.708C454.7 162.709 454.799 162.713 454.93 162.721C455.18 162.736 455.62 162.771 456.195 162.86C457.318 163.034 459.358 163.476 461.707 164.699C464.227 166.011 466.401 167.859 468.074 170.036C469.624 172.053 470.384 173.885 470.73 174.864L429.238 189.508C430.779 193.874 434.172 199.968 441.382 203.723C447.136 206.721 452.736 206.706 454.544 206.706V162.706ZM470.554 174.384L465.274 160.464L424.134 176.069L429.414 189.989L470.554 174.384ZM465.575 161.309C465.468 160.987 465.618 161.415 465.764 161.952C465.85 162.266 466.001 162.854 466.139 163.62C466.267 164.334 466.464 165.641 466.464 167.306H422.464C422.464 170.479 423.159 172.959 423.315 173.53C423.551 174.397 423.82 175.185 423.833 175.223L465.575 161.309ZM466.464 167.306C466.464 172.272 464.616 177.157 461.231 180.927C458.265 184.229 455.037 185.675 453.395 186.275C451.658 186.91 450.289 187.107 449.684 187.179C448.999 187.26 448.509 187.266 448.304 187.266V143.266C446.99 143.266 442.836 143.288 438.294 144.947C435.872 145.832 431.953 147.676 428.493 151.529C424.613 155.85 422.464 161.441 422.464 167.306H466.464ZM448.677 187.263C455.48 187.148 462.684 185.449 468.848 181.107C474.884 176.856 480.744 169.198 480.744 158.906H436.744C436.744 151.494 440.924 146.957 443.511 145.135C446.224 143.224 448.208 143.265 447.931 143.269L448.677 187.263ZM480.744 158.906C480.744 151.502 477.333 146.104 476.327 144.519C475.018 142.457 473.372 140.405 472.87 139.76L438.138 166.773C438.656 167.438 438.897 167.745 439.143 168.07C439.368 168.37 439.329 168.336 439.182 168.103C439.055 167.904 438.546 167.091 438.036 165.811C437.532 164.548 436.744 162.127 436.744 158.906H480.744ZM471.857 138.549L468.617 134.949L435.912 164.383L439.152 167.983L471.857 138.549ZM468.78 135.132C467.18 133.314 466.653 132.294 466.553 132.076C466.494 131.947 466.824 132.64 466.824 133.946H422.824C422.824 145.849 428.52 155.986 435.749 164.2L468.78 135.132ZM466.824 133.946C466.824 136.261 465.872 138.022 465.26 138.781C464.854 139.285 465.01 138.872 466.562 138.081C469.81 136.425 475.094 135.186 480.104 135.186V91.1862C469.395 91.1862 457.038 93.5477 446.576 98.8816C436.688 103.923 422.824 114.954 422.824 133.946H466.824ZM480.104 135.186C481.013 135.186 481.113 135.215 480.811 135.185C480.563 135.16 478.962 135.001 476.841 134.165C474.36 133.188 471.711 131.503 469.488 128.952C467.493 126.661 466.604 124.53 466.32 123.8L507.328 107.852C506.624 106.042 505.27 103.041 502.668 100.053C499.838 96.8041 496.439 94.5945 492.968 93.2272C487.542 91.0898 481.994 91.1862 480.104 91.1862V135.186ZM466.313 123.783L471.713 137.703L512.735 121.789L507.335 107.869L466.313 123.783ZM472.547 139.585C471.615 137.721 470.997 135.733 470.69 133.736C470.428 132.031 470.464 130.598 470.464 130.946H514.464C514.464 129.955 514.556 125.217 511.902 119.908L472.547 139.585ZM470.464 130.946C470.464 127.43 471.401 123.51 473.723 119.895C475.964 116.405 478.814 114.254 481.113 113.006C485.21 110.782 488.716 110.746 489.584 110.746V154.746C492.012 154.746 496.958 154.47 502.105 151.676C508.664 148.115 514.464 140.806 514.464 130.946H470.464ZM489.584 110.746H489.104V154.746H489.584V110.746ZM489.104 110.746C483.508 110.746 476.759 111.607 470.587 115.101C463.816 118.933 457.144 126.625 457.144 137.546H501.144C501.144 141.337 500.006 144.937 498.049 147.902C496.161 150.763 493.903 152.463 492.261 153.392C489.269 155.086 487.501 154.746 489.104 154.746V110.746ZM457.144 137.546C457.144 145.39 460.732 151.065 462.6 153.73C464.529 156.481 467.044 159.294 469.19 161.666L501.818 132.146C500.722 130.935 499.941 130.053 499.36 129.369C498.759 128.661 498.589 128.416 498.629 128.473C498.647 128.5 499.232 129.316 499.822 130.741C500.476 132.321 501.144 134.662 501.144 137.546H457.144ZM469.314 161.801C470.97 163.601 471.578 164.693 471.725 164.997C471.856 165.267 471.424 164.494 471.424 162.866H515.424C515.424 150.575 509.118 140.08 501.695 132.011L469.314 161.801ZM471.424 162.866C471.424 160.396 472.485 158.684 472.933 158.148C473.172 157.861 472.736 158.469 470.836 159.419C466.905 161.384 460.959 162.706 455.864 162.706V206.706C466.85 206.706 479.684 204.188 490.513 198.774C500.464 193.798 515.424 182.608 515.424 162.866H471.424ZM401.984 121.546C401.984 124.962 400.484 128.112 396.578 131.11C392.246 134.435 386.73 136.026 383.184 136.026V180.026C396.679 180.026 411.562 175.077 423.371 166.012C435.605 156.621 445.984 141.53 445.984 121.546H401.984ZM383.184 136.026C378.661 136.026 374.859 134.386 372.363 132.096C370.053 129.976 368.464 126.987 368.464 122.746H324.464C324.464 157.759 353.293 180.026 383.184 180.026V136.026ZM368.464 122.746C368.464 116.339 370.629 113.164 372.763 111.312C375.313 109.1 379.781 107.186 386.064 107.186V63.1862C371.228 63.1862 355.896 67.6924 343.925 78.0801C331.539 88.8282 324.464 104.434 324.464 122.746H368.464ZM386.064 107.186C392.965 107.186 396.354 109.621 398.318 111.894C400.788 114.756 401.984 118.64 401.984 121.546H445.984C445.984 108.853 441.48 94.5566 431.621 83.1384C421.254 71.1319 405.684 63.1862 386.064 63.1862V107.186ZM386.064 157.106C397.082 157.106 406.578 152.258 412.783 144.306C418.457 137.035 420.424 128.494 420.424 121.306H376.424C376.424 120.958 376.471 119.317 378.095 117.237C378.987 116.093 380.28 114.95 381.952 114.135C383.634 113.316 385.129 113.106 386.064 113.106V157.106ZM420.424 121.306C420.424 119.169 420.317 111.366 416.201 103.396C413.972 99.0786 410.354 94.3088 404.688 90.6938C398.939 87.0259 392.392 85.3862 385.704 85.3862V129.386C385.137 129.386 383.239 129.201 381.023 127.787C378.889 126.426 377.687 124.709 377.107 123.586C376.585 122.576 376.475 121.895 376.46 121.8C376.433 121.64 376.424 121.507 376.424 121.306H420.424ZM385.704 85.3862C375.8 85.3862 364.084 89.5432 356.358 93.0979C352.107 95.054 347.467 97.5541 343.513 100.502C341.58 101.943 339.075 104.031 336.843 106.793C334.957 109.129 330.964 114.749 330.964 122.831H374.964C374.964 126.352 374.046 129.12 373.246 130.879C372.452 132.624 371.579 133.813 371.072 134.441C370.119 135.621 369.462 136.038 369.811 135.778C370.421 135.324 372.076 134.3 374.75 133.07C377.29 131.901 380.042 130.871 382.458 130.171C383.652 129.825 384.611 129.605 385.301 129.48C386.058 129.344 386.147 129.386 385.704 129.386V85.3862ZM330.964 122.831C330.964 137.387 342.146 144.885 345.868 147.115C350.951 150.16 356.669 152.067 361.134 153.291C370.079 155.743 380.33 157.106 386.064 157.106V113.106C386.126 113.106 385.692 113.102 384.68 113.01C383.746 112.924 382.562 112.786 381.21 112.587C378.458 112.182 375.434 111.588 372.765 110.856C371.444 110.494 370.362 110.14 369.535 109.822C368.663 109.486 368.369 109.304 368.48 109.37C368.556 109.415 368.855 109.599 369.29 109.951C369.717 110.298 370.417 110.922 371.191 111.877C372.802 113.863 374.964 117.634 374.964 122.831H330.964ZM299.949 150.611L276.47 146.059L268.095 189.254L291.574 193.807L299.949 150.611ZM277.656 146.323C281.616 147.32 285.777 149.774 288.732 154.045C291.86 158.567 293.066 164.405 291.642 170.058L248.975 159.311C245.004 175.076 256.495 186.367 266.909 188.99L277.656 146.323ZM291.9 168.903L303.883 107.572L260.7 99.135L248.717 160.466L291.9 168.903ZM303.625 108.727C301.519 117.088 292.32 125.844 279.89 122.713L290.637 80.046C275.647 76.2705 263.767 86.8259 260.958 97.9801L303.625 108.727ZM280.999 122.962L294.674 125.664L303.202 82.4987L289.528 79.797L280.999 122.962ZM300.219 126.044C304.909 125.771 308.942 126.195 312.45 127.078L323.197 84.411C315.068 82.3636 306.53 81.6013 297.657 82.1188L300.219 126.044ZM312.45 127.078C314.742 127.656 316.938 128.497 318.965 129.523L338.846 90.2709C334.068 87.8512 328.818 85.8268 323.197 84.411L312.45 127.078ZM318.216 129.126C316.66 128.261 313.11 125.907 310.747 121.067C308.204 115.858 308.557 110.929 309.312 107.932L351.979 118.679C353.086 114.285 353.382 108.105 350.288 101.766C347.375 95.7982 342.778 92.4382 339.594 90.6682L318.216 129.126ZM309.312 107.932C309.693 106.417 310.167 105.337 310.318 105C310.395 104.828 310.447 104.724 310.406 104.807C310.38 104.862 310.376 104.87 310.323 104.979C310.283 105.061 310.228 105.176 310.166 105.307L349.897 124.212C349.932 124.139 349.914 124.177 350.037 123.922C350.119 123.754 350.285 123.408 350.468 122.999C350.831 122.19 351.48 120.659 351.979 118.679L309.312 107.932ZM310.218 105.198L302.71 120.756L342.338 139.878L349.845 124.321L310.218 105.198ZM302.79 120.593C304.354 117.419 307.287 113.957 311.87 111.867C316.376 109.811 320.875 109.813 324.373 110.694L313.626 153.362C318.52 154.594 324.402 154.512 330.132 151.898C335.938 149.249 339.935 144.756 342.258 140.041L302.79 120.593ZM324.373 110.694C325.426 110.959 326.244 111.255 326.747 111.452C327.267 111.656 327.659 111.837 327.875 111.939C328.227 112.107 328.486 112.251 328.165 112.079L307.391 150.866C307.506 150.928 308.201 151.305 308.968 151.671C309.637 151.989 311.362 152.791 313.626 153.362L324.373 110.694ZM329.27 112.713C325.953 110.681 322.017 108.863 317.568 107.743L306.821 150.41C306.56 150.344 306.396 150.279 306.326 150.249C306.256 150.218 306.246 150.208 306.286 150.233L329.27 112.713ZM317.568 107.743C313.801 106.794 310.259 106.491 306.937 106.485L306.86 150.485C307.204 150.486 307.317 150.501 307.27 150.496C307.245 150.493 307.188 150.486 307.104 150.471C307.02 150.456 306.924 150.436 306.821 150.41L317.568 107.743ZM285.307 124.263L277.143 166.013L320.325 174.458L328.489 132.707L285.307 124.263ZM277.4 164.861L277.342 165.094L320.009 175.842L320.067 175.609L277.4 164.861ZM277.341 165.094C279.987 154.593 290.633 148.23 301.135 150.875L290.388 193.543C303.451 196.833 316.719 188.903 320.009 175.841L277.341 165.094ZM211.893 169.698L211.956 170.295L255.716 165.706L255.654 165.109L211.893 169.698ZM211.956 170.295C211.789 168.703 211.751 165.973 212.816 162.734C213.956 159.266 216.053 156.168 218.832 153.81C221.421 151.613 223.976 150.582 225.554 150.092C227.103 149.611 228.286 149.478 228.632 149.442L233.221 193.202C234.731 193.043 241.35 192.409 247.301 187.359C254.924 180.89 256.378 172.02 255.716 165.706L211.956 170.295ZM230.927 171.322C227.173 149.644 227.173 149.644 227.173 149.644C227.173 149.644 227.173 149.644 227.172 149.644C227.172 149.644 227.171 149.645 227.17 149.645C227.168 149.645 227.165 149.646 227.16 149.646C227.152 149.648 227.138 149.65 227.12 149.653C227.085 149.66 227.031 149.669 226.961 149.681C226.82 149.705 226.613 149.741 226.347 149.787C225.815 149.879 225.052 150.01 224.126 150.169C222.274 150.487 219.781 150.913 217.207 151.347C214.626 151.782 211.999 152.22 209.869 152.563C207.405 152.96 206.388 153.102 206.452 153.095L211.041 196.855C213.303 196.618 219.834 195.525 224.525 194.734C227.153 194.291 229.69 193.857 231.568 193.535C232.507 193.374 233.283 193.24 233.826 193.147C234.097 193.1 234.309 193.063 234.455 193.038C234.527 193.026 234.583 193.016 234.621 193.009C234.64 193.006 234.655 193.004 234.665 193.002C234.67 193.001 234.673 193 234.676 193C234.677 193 234.678 192.999 234.679 192.999C234.679 192.999 234.68 192.999 234.68 192.999C234.68 192.999 234.68 192.999 230.927 171.322ZM206.453 153.095L206.214 153.12L210.802 196.88L211.041 196.855L206.453 153.095ZM206.213 153.12C211.555 152.56 216.724 154.324 220.539 157.59C224.124 160.659 226.073 164.619 226.741 168.375L183.419 176.07C185.278 186.538 195.121 198.525 210.803 196.88L206.213 153.12ZM226.849 169.046C225.011 156.447 222.623 142.467 220.787 128.391L177.156 134.081C179.015 148.334 181.715 164.468 183.31 175.398L226.849 169.046ZM197.894 109.262L189.251 109.686L191.406 153.633L200.049 153.21L197.894 109.262ZM190.024 109.662C200.228 109.521 208.513 117.137 209.546 126.99L165.786 131.579C167.095 144.057 177.779 153.835 190.633 153.658L190.024 109.662ZM209.655 128.573L209.009 108.612L165.032 110.034L165.678 129.995L209.655 128.573ZM209.019 109.019C209.151 118.59 202.046 127.455 191.691 128.541L187.101 84.7806C173.881 86.167 164.854 97.4047 165.023 109.627L209.019 109.019ZM190.557 128.63L197.517 128.262L195.194 84.3234L188.235 84.6913L190.557 128.63ZM218.35 105.774L218.244 101.321L174.257 102.358L174.362 106.812L218.35 105.774ZM218.251 101.792C218.239 96.2959 219.925 94.3343 220.901 93.4275C222.396 92.0379 225.222 90.6366 229.298 90.2092L224.709 46.4492C213.628 47.6113 201.053 51.8068 190.949 61.1957C180.326 71.0675 174.215 85.0662 174.251 101.887L218.251 101.792ZM229.298 90.2092C229.117 90.2282 228.235 90.3174 226.935 90.2324C225.658 90.1489 223.221 89.8529 220.368 88.6038C218.891 87.9573 217.376 87.087 215.916 85.9475C214.45 84.804 213.243 83.5487 212.266 82.2924C211.311 81.0644 210.659 79.9408 210.234 79.1215C209.828 78.3362 209.573 77.7137 209.499 77.5317C209.46 77.4361 209.432 77.3633 209.452 77.4162C209.459 77.4332 209.515 77.5768 209.578 77.7326C209.71 78.059 209.981 78.7164 210.373 79.5076C210.776 80.3222 211.324 81.3176 212.06 82.3973C212.801 83.4866 213.687 84.5937 214.742 85.6691C216.904 87.875 219.313 89.4794 221.7 90.6124C223.995 91.7014 226.172 92.3102 227.971 92.672L236.643 49.5351C238.223 49.8527 242.35 50.9781 246.163 54.8682C249.592 58.366 251.096 63.0176 250.255 60.9497C250.024 60.3818 249.038 57.9038 247.003 55.2854C244.671 52.2871 241.607 49.8705 238.014 48.2972C234.759 46.8723 231.794 46.4562 229.808 46.3262C227.798 46.1948 226.023 46.3113 224.709 46.4492L229.298 90.2092ZM229.623 92.9392C231.017 93.1105 232.295 93.1363 232.678 93.1451C233.289 93.1592 233.932 93.1625 234.427 93.1644C235.573 93.1688 236.418 93.1683 237.23 93.1901C238.226 93.2167 238.105 93.2574 237.414 93.148C237.245 93.1213 235.466 92.8671 233.202 91.9007C232.069 91.4173 229.662 90.2803 227.187 87.9926C224.528 85.5352 221.052 80.9934 220.353 74.3355L264.113 69.7464C263.4 62.9393 259.845 58.2612 257.051 55.6792C254.441 53.2669 251.843 52.017 250.471 51.4313C247.727 50.2604 245.273 49.8442 244.292 49.6889C241.977 49.3224 239.68 49.2399 238.409 49.2058C236.953 49.1668 235.44 49.168 234.595 49.1648C232.896 49.1583 233.753 49.1156 234.991 49.2679L229.623 92.9392ZM233.777 51.7313L226.422 54.7939L243.335 95.4132L250.69 92.3506L233.777 51.7313ZM215.967 86.3438L222.65 97.5893L260.474 75.1087L253.79 63.8633L215.967 86.3438ZM219.566 85.912C219.686 79.8918 222.552 75.4015 225.316 72.7841C227.886 70.3507 231.467 68.4241 235.893 67.96L240.482 111.72C246.46 111.093 251.709 108.388 255.569 104.734C259.623 100.895 263.4 94.7407 263.558 86.786L219.566 85.912ZM235.893 67.96L235.535 67.9975L240.124 111.758L240.482 111.72L235.893 67.96ZM235.535 67.9975C230.752 68.4991 222.038 70.0918 214.456 76.3963C205.423 83.9078 201.532 95.0549 202.791 107.066L246.551 102.477C246.541 102.379 246.676 103.584 245.976 105.457C245.239 107.428 243.971 109.078 242.588 110.228C241.342 111.264 240.316 111.643 240.033 111.738C239.742 111.836 239.749 111.797 240.124 111.758L235.535 67.9975ZM225.677 126.748L235.884 126.281L233.873 82.327L223.666 82.7942L225.677 126.748ZM237.173 126.184C224.425 127.521 216.56 117.55 215.661 108.974L259.421 104.385C258.221 92.9448 247.957 80.8118 232.584 82.424L237.173 126.184ZM215.552 107.39L216.198 127.352L260.175 125.93L259.529 105.968L215.552 107.39ZM216.186 126.747C216.147 118.675 221.909 108.52 233.742 107.279L238.332 151.039C252.791 149.522 260.236 137.019 260.186 126.535L216.186 126.747ZM233.742 107.279L233.504 107.304L238.093 151.064L238.332 151.039L233.742 107.279ZM234.443 107.226L226.051 107.744L228.762 151.66L237.154 151.142L234.443 107.226ZM205.628 132.812C207.503 145.945 210.011 160.408 212.175 171.585L255.372 163.222C253.324 152.64 250.943 138.899 249.186 126.592L205.628 132.812ZM160.816 160.307L137.478 154.583L126.996 197.316L150.334 203.04L160.816 160.307ZM138.538 154.871L138.308 154.802L125.706 196.959L125.936 197.028L138.538 154.871ZM138.308 154.802C150.254 158.373 153.44 169.938 151.957 177.261L108.833 168.527C106.823 178.448 111.23 192.632 125.706 196.959L138.308 154.802ZM151.768 178.106L165.632 121.255L122.885 110.831L109.021 167.682L151.768 178.106ZM165.337 122.344C164.117 126.427 161.336 130.561 156.83 133.298C152.282 136.059 147.186 136.655 142.785 135.73L151.843 92.6721C138.874 89.9437 126.764 97.7538 123.18 109.742L165.337 122.344ZM142.074 135.568L165.412 141.292L175.893 98.5584L152.555 92.8342L142.074 135.568ZM164.351 141.003L164.581 141.072L177.184 98.9156L176.954 98.8469L164.351 141.003ZM164.581 141.072C158.813 139.348 154.94 135.436 152.848 131.559C150.756 127.682 149.611 122.298 151.336 116.53L193.492 129.133C197.316 116.342 189.975 102.739 177.184 98.9155L164.581 141.072ZM151.041 117.617L137.143 174.583L179.889 185.012L193.787 128.046L151.041 117.617ZM137.437 173.496L137.369 173.726L179.525 186.328L179.594 186.098L137.437 173.496ZM137.369 173.726C139.106 167.915 143.007 164.181 146.539 162.193C150.055 160.215 154.688 159.096 159.748 160.073L151.403 203.274C162.407 205.4 175.585 199.509 179.525 186.328L137.369 173.726ZM159.465 96.0401C160.161 93.7117 162.562 92.4155 164.891 93.1116L152.289 135.268C173.243 141.532 195.357 129.596 201.621 108.642L159.465 96.0401ZM164.891 93.1116C160.159 91.6971 154.746 89.8958 151.087 87.9254C149.124 86.8686 149.451 86.6887 150.459 87.9C151.087 88.6537 152.294 90.3333 153.03 92.9662C153.829 95.824 153.822 98.943 152.959 101.831L110.802 89.229C107.366 100.724 111.897 110.351 116.648 116.057C120.93 121.199 126.341 124.574 130.225 126.665C138.26 130.992 147.592 133.864 152.289 135.268L164.891 93.1116ZM152.959 101.831C152.206 104.35 151.059 105.817 150.666 106.28C150.242 106.781 150.094 106.82 150.521 106.506C151.417 105.848 153.225 104.815 155.802 103.813C158.317 102.834 160.804 102.181 162.713 101.89C163.651 101.746 164.192 101.73 164.348 101.732C164.6 101.734 163.827 101.77 162.428 101.351L175.03 59.1946C168.057 57.11 160.94 57.65 156.067 58.3945C150.624 59.2263 145.017 60.7962 139.85 62.806C134.746 64.7916 129.285 67.5119 124.482 71.0388C120.293 74.114 113.563 79.9952 110.802 89.229L152.959 101.831ZM162.428 101.351C160.006 100.627 158.831 98.1604 159.465 96.0401L201.621 108.642C207.892 87.6667 196.077 65.4864 175.03 59.1946L162.428 101.351ZM72.2324 167.133L49.9424 84.9793L7.47767 96.5008L29.7677 178.655L72.2324 167.133ZM50.71 90.7395L50.71 89.4994L6.71001 89.5006L6.71004 90.7407L50.71 90.7395ZM50.2632 85.0888C50.2916 85.2275 50.748 87.2643 50.5747 90.0284C50.3601 93.4521 49.1406 98.4886 45.0776 102.951C41.5619 106.811 37.6741 108.232 36.4762 108.643C35.2189 109.074 34.2447 109.244 34.6862 109.153L25.8637 66.0471C25.541 66.1131 23.953 66.4226 22.2139 67.0185C20.5342 67.594 16.2965 69.2058 12.5445 73.3263C8.24527 78.0477 6.90308 83.4123 6.6609 87.2755C6.46006 90.4793 6.98403 93.0671 7.15679 93.9112L50.2632 85.0888ZM35.9764 108.849L49.4453 105.235L38.0423 62.7379L24.5735 66.3519L35.9764 108.849ZM55.8997 102.323C59.4157 99.9921 65.0798 97.5435 71.4828 96.233L62.6603 53.1266C51.4288 55.4253 40.3673 59.8295 31.588 65.6495L55.8997 102.323ZM71.4828 96.233C81.5521 94.1722 86.486 95.9705 88.3253 97.0244C90.076 98.0276 90.9531 99.3996 91.2967 101.079L134.403 92.2561C131.691 79.0046 123.61 66.5315 110.201 58.8479C96.8808 51.2151 80.4534 49.4849 62.6603 53.1266L71.4828 96.233ZM91.2967 101.079C91.3791 101.481 91.374 101.837 91.2478 102.319C91.1011 102.879 90.7507 103.717 90.0208 104.741L125.84 130.294C132.555 120.881 137.528 107.522 134.403 92.2561L91.2967 101.079ZM97.6586 136.972C98.4264 137.377 98.9277 137.659 99.2933 137.881C99.6435 138.093 99.789 138.203 99.8162 138.223C99.8319 138.236 99.7596 138.18 99.651 138.067C99.5401 137.951 99.4673 137.853 99.4401 137.813L135.837 113.09C130.12 104.674 122.972 100.581 118.203 98.0624L97.6586 136.972ZM99.6436 138.108C101.141 140.237 101.556 141.632 101.647 142.076L144.754 133.253C143.256 125.938 140.011 119.019 135.634 112.796L99.6436 138.108ZM101.647 142.076C101.739 142.525 101.724 142.767 101.518 143.26C101.225 143.96 100.394 145.373 98.3342 147.218C94.0299 151.075 86.578 154.796 77.7154 156.609L86.5378 199.716C101.188 196.718 116.318 190.182 127.695 179.989C139.296 169.595 148.853 153.281 144.754 133.253L101.647 142.076ZM77.7154 156.609C77.1309 156.729 75.5088 156.99 73.2773 157.164C71.0848 157.335 68.8245 157.38 66.8773 157.252C64.7149 157.11 64.0326 156.821 64.3875 156.959C64.5444 157.019 68.8823 158.683 71.2696 164.341L30.7305 181.446C34.9018 191.332 43.1996 195.938 48.4985 197.989C53.9955 200.118 59.6374 200.871 63.9878 201.157C72.7385 201.733 81.613 200.724 86.5378 199.716L77.7154 156.609ZM40.2838 105.439L45.5766 125.914L88.1763 114.901L82.8834 94.4269L40.2838 105.439ZM72.163 141.763C74.6029 141.159 82.601 139.317 89.709 135.164C93.4055 133.004 98.3882 129.373 102.068 123.505C106.14 117.01 107.727 109.142 106.06 100.997L62.9537 109.819C62.6879 108.521 62.5899 106.828 62.9394 104.925C63.288 103.026 63.9925 101.402 64.7892 100.131C65.5553 98.9094 66.329 98.1327 66.7934 97.7232C67.0322 97.5127 67.2205 97.3714 67.3355 97.2901C67.3944 97.2484 67.4391 97.2189 67.4676 97.2006C67.482 97.1914 67.4929 97.1847 67.4999 97.1803C67.507 97.176 67.5107 97.1739 67.5107 97.1739C67.5107 97.1739 67.5074 97.1758 67.5006 97.1796C67.4938 97.1834 67.4838 97.1889 67.4704 97.1961C67.4435 97.2105 67.4049 97.2305 67.3538 97.2558C67.2499 97.307 67.1072 97.3732 66.922 97.4518C66.5428 97.6126 66.0632 97.7922 65.4788 97.9838C64.2581 98.3839 63.0321 98.6952 61.5899 99.0522L72.163 141.763ZM106.06 100.997C104.299 92.3906 98.9553 84.2553 90.0745 79.4715C81.5365 74.8723 72.0828 74.5932 63.6116 76.327L72.434 119.433C74.0732 119.098 72.3081 119.879 69.2078 118.209C65.7648 116.354 63.6082 113.017 62.9537 109.819L106.06 100.997ZM63.6116 76.327C59.8953 77.0876 56.1686 78.2548 52.6019 79.85L70.5653 120.016C71.0384 119.805 71.6829 119.587 72.434 119.433L63.6116 76.327ZM50.2492 143.954L54.9192 161.983L97.5136 150.951L92.8436 132.921L50.2492 143.954ZM77.5352 178.428C80.1359 178.271 82.7319 177.957 85.4023 177.411L76.5799 134.304C76.1937 134.383 75.685 134.459 74.8976 134.507L77.5352 178.428ZM85.4023 177.411C92.5183 175.954 100.277 172.815 106.422 166.958C112.988 160.699 118.057 150.637 115.619 138.726L72.513 147.549C71.9835 144.962 72.2001 142.22 73.1112 139.747C73.9753 137.402 75.2323 135.901 76.0626 135.11C77.5436 133.698 78.1637 133.98 76.5799 134.304L85.4023 177.411ZM115.619 138.726C113.548 128.604 106.868 120.273 96.8252 116.419C88.4211 113.195 79.809 113.923 73.2939 115.256L82.1163 158.363C85.0062 157.771 83.949 158.607 81.0615 157.499C79.3261 156.833 77.2044 155.546 75.3975 153.376C73.6111 151.23 72.8199 149.048 72.513 147.549L115.619 138.726ZM73.2939 115.256C70.3444 115.86 67.3494 116.632 64.4959 117.598L78.5969 159.277C79.4092 159.002 80.5984 158.673 82.1163 158.363L73.2939 115.256ZM146.917 55.3311L145.077 53.6087L115.005 85.7279L116.844 87.4502L146.917 55.3311ZM149.35 80.2123C152.757 73.9734 154.345 66.904 153.935 59.8073L110.008 62.3462C109.944 61.2257 110.194 60.1095 110.732 59.1244L149.35 80.2123ZM153.935 59.8073C153.525 52.7107 151.132 45.8714 147.029 40.0666L111.099 65.4632C110.451 64.5466 110.073 63.4668 110.008 62.3462L153.935 59.8073ZM147.029 40.0666C142.926 34.2617 137.277 29.7242 130.724 26.9694L113.673 67.5312C112.638 67.0962 111.747 66.3797 111.099 65.4632L147.029 40.0666ZM130.724 26.9694C124.171 24.2147 116.977 23.3532 109.959 24.483L116.952 67.9237C115.844 68.1021 114.708 67.9661 113.673 67.5312L130.724 26.9694ZM109.959 24.483C102.941 25.6128 96.3803 28.6884 91.0228 33.3605L119.942 66.522C119.096 67.2597 118.06 67.7454 116.952 67.9237L109.959 24.483ZM91.0228 33.3605C85.6653 38.0325 81.7258 44.1136 79.6517 50.9128L121.737 63.7506C121.41 64.8242 120.788 65.7843 119.942 66.522L91.0228 33.3605ZM79.6517 50.9128C77.5777 57.712 77.4524 64.9566 79.29 71.8235L121.794 60.4489C122.085 61.5332 122.065 62.6771 121.737 63.7506L79.6517 50.9128ZM79.29 71.8235C81.1277 78.6904 84.8546 84.9041 90.0472 89.7586L120.096 57.6171C120.916 58.3836 121.504 59.3647 121.794 60.4489L79.29 71.8235ZM90.0352 89.7474L103.175 102.05L133.247 69.9307L120.108 57.6283L90.0352 89.7474ZM103.175 102.05C109.37 107.85 117.616 110.952 126.098 110.673L124.651 66.697C127.832 66.5923 130.924 67.7555 133.247 69.9307L103.175 102.05ZM126.098 110.673C134.581 110.394 142.605 106.757 148.405 100.561L116.286 70.4888C118.461 68.1656 121.47 66.8016 124.651 66.697L126.098 110.673ZM148.405 100.561C154.206 94.3662 157.308 86.1204 157.029 77.638L113.052 79.0851C112.948 75.9043 114.111 72.8121 116.286 70.4888L148.405 100.561ZM157.029 77.638C156.749 69.1557 153.112 61.1317 146.917 55.3311L116.844 87.4502C114.521 85.275 113.157 82.266 113.052 79.0851L157.029 77.638ZM454.671 181.111L456.753 164.269L413.085 158.872L411.004 175.714L454.671 181.111ZM437.617 139.736L420.775 137.655L415.378 181.323L432.221 183.404L437.617 139.736ZM383.627 166.631L381.545 183.474L425.213 188.87L427.295 172.028L383.627 166.631ZM400.681 208.006L417.523 210.087L422.92 166.419L406.078 164.338L400.681 208.006ZM461.785 70.387C461.453 69.6108 461.241 68.9747 461.117 68.5735C460.987 68.1527 460.901 67.8176 460.849 67.5989C460.748 67.176 460.711 66.9259 460.708 66.9079C460.703 66.8715 460.744 67.1579 460.773 67.7569C460.832 68.9732 460.794 70.5536 460.598 72.0289C460.503 72.7401 460.39 73.2831 460.293 73.6512C460.19 74.0368 460.152 74.0505 460.276 73.7909C460.423 73.4862 461.973 70.3904 466.317 68.5338L483.612 108.992C492.525 105.182 497.405 98.1122 499.934 92.8504C502.485 87.5424 503.647 82.0892 504.214 77.8285C504.8 73.4172 504.892 69.1648 504.722 65.6392C504.637 63.8672 504.475 62.0553 504.213 60.3229C504.029 59.1133 503.557 56.1638 502.244 53.0924L461.785 70.387ZM466.317 68.5338C468.406 67.6407 470.233 67.4504 471.401 67.4571C472.52 67.4636 473.167 67.6473 473.225 67.6639C473.304 67.6863 473.098 67.6328 472.605 67.3951C472.128 67.1649 471.529 66.8331 470.84 66.393C469.414 65.482 468.084 64.4167 467.185 63.5853C466.734 63.1685 466.589 62.9923 466.684 63.1022C466.731 63.1564 466.969 63.4336 467.304 63.9094C467.477 64.1552 467.731 64.5317 468.021 65.0234C468.298 65.4926 468.716 66.2489 469.141 67.2425L428.683 84.5372C430.268 88.2469 432.601 90.955 433.377 91.8539C434.61 93.2829 435.97 94.649 437.308 95.8871C439.988 98.3657 443.376 101.061 447.157 103.476C450.831 105.822 455.684 108.424 461.216 109.993C466.548 111.506 474.901 112.716 483.612 108.992L466.317 68.5338ZM469.141 67.2425C472.601 75.3358 469.581 81.9377 468.608 83.7222C467.483 85.7839 466.419 86.6162 466.693 86.3731C467.059 86.0478 468.751 84.8099 471.752 83.527L454.457 43.0684C448.318 45.6929 442.262 49.2277 437.491 53.4598C435.197 55.4954 432.217 58.5527 429.981 62.6505C427.897 66.4712 424.572 74.9204 428.683 84.5372L469.141 67.2425ZM471.752 83.527C474.753 82.244 476.817 81.8767 477.306 81.8365C477.671 81.8064 476.334 82.0006 474.066 81.389C472.103 80.8596 465.245 78.4803 461.785 70.387L502.244 53.0924C498.133 43.4756 489.727 40.0409 485.525 38.9074C481.019 37.6917 476.749 37.7332 473.693 37.9851C467.337 38.5087 460.597 40.4439 454.457 43.0684L471.752 83.527ZM467.288 83.2602C463.858 75.2362 466.805 68.6708 467.802 66.8312C468.933 64.7452 470.013 63.8965 469.75 64.1298C469.404 64.4374 467.722 65.6743 464.677 66.9757L481.972 107.434C488.122 104.805 494.189 101.272 498.967 97.0297C501.266 94.9879 504.251 91.919 506.484 87.7999C508.584 83.9272 511.829 75.516 507.746 65.9655L467.288 83.2602ZM464.677 66.9757C461.632 68.2772 459.576 68.6384 459.114 68.6763C458.764 68.705 460.124 68.5107 462.413 69.1348C464.432 69.6852 471.214 72.0917 474.644 80.1157L434.185 97.4104C438.268 106.961 446.591 110.427 450.841 111.586C455.361 112.818 459.643 112.78 462.707 112.529C469.075 112.008 475.821 110.063 481.972 107.434L464.677 66.9757ZM428.683 84.5372L439.688 110.284L480.147 92.9889L469.141 67.2425L428.683 84.5372ZM439.688 110.284C443.771 119.834 452.093 123.3 456.343 124.459C460.864 125.691 465.145 125.654 468.21 125.403C474.578 124.881 481.324 122.937 487.475 120.307L470.18 79.8489C467.135 81.1504 465.079 81.5116 464.617 81.5494C464.267 81.5781 465.627 81.3839 467.916 82.008C469.935 82.5583 476.717 84.9649 480.147 92.9889L439.688 110.284ZM487.475 120.307C493.625 117.678 499.692 114.146 504.469 109.903C506.769 107.861 509.754 104.792 511.987 100.673C514.086 96.8004 517.332 88.3891 513.249 78.8387L472.791 96.1334C469.361 88.1093 472.308 81.544 473.305 79.7043C474.436 77.6183 475.516 76.7697 475.253 77.003C474.907 77.3106 473.225 78.5474 470.18 79.8489L487.475 120.307ZM513.249 78.8387L502.244 53.0924L461.785 70.387L472.791 96.1334L513.249 78.8387Z" fill="#8AB6FD"/>
<path d="M555.372 117.311L576.675 122.804L576.867 122.062L577.006 121.308L555.372 117.311ZM551.288 133.15L572.552 138.794L572.572 138.718L572.591 138.643L551.288 133.15ZM547.968 137.128L544.918 115.341L547.968 137.128ZM546.881 137.159L550.878 115.525L549.519 115.274L548.138 115.195L546.881 137.159ZM514.294 96.5238L536.018 93.0445L532.784 72.8528L512.41 74.6047L514.294 96.5238ZM505.315 97.2959L506.379 119.27L506.79 119.25L507.2 119.215L505.315 97.2959ZM502.572 95.014L480.621 96.4846L480.674 97.277L480.784 98.0634L502.572 95.014ZM501.237 75.0867L479.263 76.151L479.273 76.3543L479.286 76.5573L501.237 75.0867ZM503.519 72.344L501.835 50.4085L501.15 50.4611L500.47 50.5563L503.519 72.344ZM511.191 71.7548L512.876 93.6903L535.028 91.9893L533.109 69.8548L511.191 71.7548ZM509.994 57.1397L488.028 58.3692L488.037 58.5173L488.047 58.6653L509.994 57.1397ZM512.925 52.9733L515.974 74.7609L515.974 74.7609L512.925 52.9733ZM513.4 52.9067L511.391 30.9987L510.869 31.0465L510.351 31.1191L513.4 52.9067ZM536.011 50.8327L534.246 28.9036L534.124 28.9134L534.001 28.9246L536.011 50.8327ZM539.448 53.7444L561.356 51.7348L561.308 51.2135L561.235 50.695L539.448 53.7444ZM540.626 69.0892L518.676 70.5785L520.186 92.8242L542.409 91.0168L540.626 69.0892ZM548.893 68.4169L550.676 90.3445L551.311 90.2929L551.942 90.2045L548.893 68.4169ZM551.635 70.6988L573.586 69.2282L573.533 68.4359L573.423 67.6494L551.635 70.6988ZM552.97 90.6261L574.953 89.7598L574.941 89.4574L574.921 89.1556L552.97 90.6261ZM550.909 93.2167L553.959 115.004L553.959 115.004L550.909 93.2167ZM550.672 93.25L552.729 115.154L553.226 115.107L553.721 115.038L550.672 93.25ZM542.778 93.9912L540.721 72.0876L517.8 74.2401L520.991 97.0406L542.778 93.9912ZM552.411 114.332L558.65 93.2359L558.45 93.1766L558.249 93.1212L552.411 114.332ZM555.477 116.327L533.689 119.376L555.477 116.327ZM444.52 159L465.266 151.678L465.181 151.437L465.09 151.198L444.52 159ZM439.24 145.08L418.369 152.037L418.511 152.463L418.67 152.882L439.24 145.08ZM442.84 142.08V164.08H443.026L443.213 164.077L442.84 142.08ZM450.04 130.08L467.406 116.573L466.921 115.95L466.392 115.363L450.04 130.08ZM446.8 126.48L430.284 141.014L430.365 141.106L430.448 141.197L446.8 126.48ZM481.36 92.64L501.871 84.6833L501.867 84.6747L501.864 84.6662L481.36 92.64ZM486.76 106.56L466.249 114.517L466.622 115.477L467.083 116.399L486.76 106.56ZM480.04 123.72L463.726 138.48L463.788 138.548L463.849 138.615L480.04 123.72ZM290.297 149.023L295.671 127.689L295.082 127.541L294.485 127.425L290.297 149.023ZM266.818 144.47L261.445 165.804L262.034 165.952L262.63 166.068L266.818 144.47ZM264.844 141.498L286.178 146.872L286.323 146.298L286.436 145.717L264.844 141.498ZM276.827 80.1674L255.494 74.7939L255.349 75.3679L255.236 75.9488L276.827 80.1674ZM279.799 78.1935L274.426 99.5272L274.977 99.6661L275.535 99.7763L279.799 78.1935ZM293.474 80.8953L289.209 102.478L291.958 103.021L294.754 102.858L293.474 80.8953ZM312.359 82.5585L306.986 103.892L312.359 82.5585ZM323.441 86.7108L334.13 67.482L333.759 67.2761L333.381 67.0847L323.441 86.7108ZM325.181 90.1191L303.847 84.7457L325.181 90.1191ZM324.567 91.5733L344.381 101.134L344.407 101.08L344.433 101.026L324.567 91.5733ZM317.06 107.131L336.794 116.855L336.834 116.774L336.874 116.692L317.06 107.131ZM313.535 108.842L308.162 130.175L308.162 130.175L313.535 108.842ZM312.314 108.287L300.822 127.046L301.365 127.379L301.927 127.68L312.314 108.287ZM306.73 105.89L312.104 84.5565L306.73 105.89ZM301.434 105.299L301.473 83.2988L283.326 83.2667L279.843 101.076L301.434 105.299ZM293.27 147.049L314.603 152.423L314.747 151.851L314.861 151.271L293.27 147.049ZM293.211 147.282L271.877 141.908L271.877 141.908L293.211 147.282ZM233.002 143.614L254.882 141.319L254.783 140.37L254.601 139.432L233.002 143.614ZM233.065 144.21L211.185 146.505L211.185 146.505L233.065 144.21ZM230.155 147.532L227.861 125.652L227.128 125.729L226.402 125.855L230.155 147.532ZM207.975 151.185L210.269 173.065L210.27 173.065L207.975 151.185ZM207.737 151.21L205.443 129.33L205.442 129.33L207.737 151.21ZM204.308 148.433L182.539 151.609L182.588 151.945L182.647 152.28L204.308 148.433ZM198.2 107.446L220.015 104.601L217.391 84.4789L197.123 85.4726L198.2 107.446ZM189.557 107.87L189.861 129.868L190.248 129.863L190.635 129.844L189.557 107.87ZM186.895 105.495L164.906 106.206L164.932 106.999L165.015 107.789L186.895 105.495ZM186.249 85.5331L164.252 85.8374L164.254 86.0408L164.261 86.2442L186.249 85.5331ZM188.625 82.8709L187.463 60.9015L186.896 60.9316L186.33 60.9909L188.625 82.8709ZM195.584 82.503L196.746 104.472L218.082 103.345L217.578 81.9842L195.584 82.503ZM195.479 78.0497L173.479 78.0969L173.48 78.3327L173.485 78.5684L195.479 78.0497ZM226.232 44.5394L223.937 22.6594L226.232 44.5394ZM239.202 45.1098L234.866 66.6782L235.687 66.8433L236.518 66.9454L239.202 45.1098ZM241.462 48.2512L219.582 50.5458L219.582 50.5458L241.462 48.2512ZM241.512 48.7286L263.482 49.8746L263.572 48.1507L263.392 46.434L241.512 48.7286ZM240.791 62.5593L218.821 61.4133L218.802 61.7676L218.795 62.1223L240.791 62.5593ZM237.416 66.0502L239.711 87.9302L239.711 87.9302L237.416 66.0502ZM237.058 66.0878L234.764 44.2078L234.764 44.2078L237.058 66.0878ZM223.9 80.9814L202.02 83.276L204.184 103.907L224.906 102.958L223.9 80.9814ZM234.107 80.5143L235.113 102.491L235.759 102.462L236.402 102.394L234.107 80.5143ZM236.769 82.8896L258.758 82.1786L258.732 81.3848L258.649 80.595L236.769 82.8896ZM237.415 102.851L259.414 102.745L259.413 102.443L259.403 102.14L237.415 102.851ZM235.266 105.369L232.971 83.489L232.971 83.489L235.266 105.369ZM235.027 105.394L236.383 127.352L236.853 127.323L237.322 127.274L235.027 105.394ZM226.635 105.912L225.28 83.9539L201.486 85.4228L204.856 109.022L226.635 105.912ZM150.111 158.487L144.87 179.854L145.401 179.984L145.938 180.088L150.111 158.487ZM126.773 152.763L120.471 173.841L120.998 173.999L121.532 174.13L126.773 152.763ZM126.543 152.694L132.844 131.616L132.844 131.616L126.543 152.694ZM124.931 149.708L103.557 144.495L103.454 144.916L103.368 145.341L124.931 149.708ZM138.794 92.8566L117.716 86.5555L117.555 87.0961L117.421 87.6444L138.794 92.8566ZM141.85 91.0146L147.091 69.648L146.736 69.561L146.379 69.4859L141.85 91.0146ZM165.188 96.7389L171.49 75.6607L170.963 75.5032L170.429 75.3722L165.188 96.7389ZM165.418 96.8076L159.117 117.886L159.117 117.886L165.418 96.8076ZM166.95 99.6452L145.871 93.344L145.71 93.8836L145.577 94.4307L166.95 99.6452ZM153.051 156.611L174.13 162.912L174.291 162.373L174.425 161.826L153.051 156.611ZM152.983 156.841L174.061 163.142L174.061 163.142L152.983 156.841ZM175.079 79.1551L196.157 85.4562L175.079 79.1551ZM153.126 91.0037L159.427 69.9254L159.427 69.9254L153.126 91.0037ZM126.416 72.344L147.495 78.6451L126.416 72.344ZM163.265 57.0868L169.566 36.0084L169.566 36.0084L163.265 57.0868ZM44.1175 150.604L22.8223 156.127L23.2248 157.679L23.848 159.156L44.1175 150.604ZM22.6361 67.789L1.0829 72.2002L1.19745 72.7598L1.34088 73.3128L22.6361 67.789ZM22.588 67.5539L44.1412 63.1427L44.1412 63.1426L22.588 67.5539ZM24.7626 64.4141L29.1738 85.9673L29.8236 85.8343L30.4641 85.6624L24.7626 64.4141ZM38.2315 60.8L43.933 82.0484L47.3975 81.1188L50.3873 79.1368L38.2315 60.8ZM61.5592 51.4936L65.9704 73.0468L61.5592 51.4936ZM107.338 73.4811L128.891 69.0699L107.338 73.4811ZM102.418 94.3309L84.5085 81.5544L69.8962 102.038L92.1463 113.786L102.418 94.3309ZM112.126 102.265L93.9277 114.627L94.0283 114.775L94.1313 114.922L112.126 102.265ZM117.688 114.478L139.241 110.067L117.688 114.478ZM76.6143 154.976L81.0255 176.53L76.6143 154.976ZM56.0713 76.7468L47.0895 56.6638L30.1185 64.2538L34.7715 82.253L56.0713 76.7468ZM61.3641 97.2214L40.0643 102.728L45.5141 123.809L66.6507 118.577L61.3641 97.2214ZM78.9946 82.2217L57.4414 86.6329L78.9946 82.2217ZM62.5104 74.694L58.0992 53.1408L62.5104 74.694ZM66.0341 115.251L58.9836 94.4115L39.6082 100.967L44.7369 120.767L66.0341 115.251ZM70.7041 133.281L49.4069 138.797L53.9473 156.327L72.0229 155.241L70.7041 133.281ZM75.4788 132.671L79.89 154.224L79.89 154.224L75.4788 132.671ZM88.5538 119.951L67.0006 124.362L67.0006 124.362L88.5538 119.951ZM72.1928 113.623L67.7815 92.07L72.1928 113.623ZM126.416 48.2045L141.453 32.1449L141.453 32.1449L126.416 48.2045ZM124.577 46.4821L105.268 35.9382C100.46 44.7429 102.217 55.6852 109.541 62.5417L124.577 46.4821ZM99.6074 50.5016L114.644 34.4421C114.64 34.4383 114.636 34.4346 114.632 34.4309L99.6074 50.5016ZM112.747 62.8041L127.783 46.7445L127.783 46.7445L112.747 62.8041ZM405.539 152.528C404.049 164.587 412.616 175.57 424.675 177.06C436.734 178.551 447.717 169.983 449.207 157.925L405.539 152.528ZM429.455 138.384L451.289 141.082C452.779 129.024 444.212 118.04 432.153 116.55L429.455 138.384ZM415.311 114.469C403.252 112.978 392.269 121.546 390.778 133.604C389.288 145.663 397.855 156.646 409.914 158.136L415.311 114.469ZM421.83 148.842C423.321 136.783 414.753 125.8 402.695 124.309C390.636 122.819 379.653 131.386 378.163 143.445L421.83 148.842ZM397.915 162.986L376.081 160.287C374.591 172.346 383.158 183.329 395.217 184.82L397.915 162.986ZM412.059 186.901C424.118 188.391 435.101 179.824 436.591 167.765C438.082 155.707 429.514 144.723 417.456 143.233L412.059 186.901ZM476.55 38.5535L496.779 29.9062L476.55 38.5535ZM443.448 52.7037L423.218 61.351L423.218 61.351L443.448 52.7037ZM502.282 42.7793C497.506 31.607 484.578 26.4216 473.406 31.1974C462.233 35.9732 457.048 48.9017 461.824 60.074L502.282 42.7793ZM469.18 56.9295C464.404 45.7572 451.476 40.5718 440.303 45.3476C429.131 50.1233 423.945 63.0518 428.721 74.2242L469.18 56.9295ZM454.453 78.45L474.683 69.8027L474.683 69.8027L454.453 78.45ZM487.556 64.2998L467.327 72.9472L467.327 72.9472L487.556 64.2998ZM534.069 111.818L529.985 127.657L572.591 138.643L576.675 122.804L534.069 111.818ZM530.025 127.505C530.054 127.395 530.208 126.824 530.567 125.996C530.926 125.166 531.615 123.79 532.832 122.257C534.106 120.655 535.876 118.988 538.209 117.65C540.544 116.313 542.881 115.626 544.918 115.341L551.017 158.916C557.535 158.004 563.268 154.682 567.284 149.627C570.607 145.444 571.949 141.065 572.552 138.794L530.025 127.505ZM544.918 115.341C544.59 115.387 545.316 115.272 546.201 115.223C547.23 115.165 548.881 115.156 550.878 115.525L542.884 158.793C545.255 159.231 547.271 159.232 548.66 159.154C549.906 159.084 550.988 158.92 551.017 158.916L544.918 115.341ZM548.138 115.195C544.799 115.004 543.278 114.517 542.722 114.283C542.425 114.157 542.353 114.116 542.097 113.801C540.9 112.325 538.329 107.474 536.018 93.0445L492.571 100.003C495.063 115.557 498.952 130.461 507.931 141.526C518.286 154.286 532.17 158.354 545.625 159.123L548.138 115.195ZM512.41 74.6047L503.43 75.3768L507.2 119.215L516.179 118.443L512.41 74.6047ZM504.251 75.3217C514.443 74.828 522.987 82.1535 524.36 91.9647L480.784 98.0634C482.523 110.489 493.539 119.892 506.379 119.27L504.251 75.3217ZM524.523 93.5435L523.188 73.6162L479.286 76.5573L480.621 96.4846L524.523 93.5435ZM523.211 74.0224C523.674 83.5841 516.88 92.6884 506.568 94.1316L500.47 50.5563C487.305 52.3988 478.671 63.9416 479.263 76.151L523.211 74.0224ZM505.203 94.2794L512.876 93.6903L509.507 49.8194L501.835 50.4085L505.203 94.2794ZM533.109 69.8548C532.705 65.1952 532.283 60.5358 531.941 55.6141L488.047 58.6653C488.422 64.0638 488.889 69.216 489.273 73.6549L533.109 69.8548ZM531.96 55.9102C531.885 54.5769 532.477 58.8519 530.394 63.5669C529.105 66.4855 526.932 69.4121 523.769 71.6264C520.748 73.7415 517.836 74.5003 515.974 74.7609L509.875 31.1856C502.032 32.2833 494.054 36.9419 490.146 45.7884C487.35 52.1178 488.022 58.2598 488.028 58.3692L531.96 55.9102ZM515.974 74.7609L516.45 74.6944L510.351 31.1191L509.875 31.1856L515.974 74.7609ZM515.41 74.8148L538.02 72.7407L534.001 28.9246L511.391 30.9987L515.41 74.8148ZM537.776 72.7618C534.675 73.0113 529.023 72.489 523.936 68.0577C519.154 63.8918 517.959 58.9282 517.66 56.7938L561.235 50.695C560.654 46.5403 558.758 40.0388 552.838 34.8812C546.613 29.4581 539.384 28.4901 534.246 28.9036L537.776 72.7618ZM517.54 55.754C517.975 60.5004 518.336 65.5576 518.676 70.5785L562.576 67.5999C562.232 62.5384 561.842 57.0377 561.356 51.7348L517.54 55.754ZM542.409 91.0168L550.676 90.3445L547.109 46.4893L538.843 47.1616L542.409 91.0168ZM551.942 90.2045C539.248 91.9812 531.043 82.2872 529.848 73.7481L573.423 67.6494C571.829 56.2582 561.152 44.4866 545.843 46.6293L551.942 90.2045ZM529.685 72.1693L531.019 92.0966L574.921 89.1556L573.586 69.2282L529.685 72.1693ZM530.987 91.4924C530.669 83.4271 536.076 73.0784 547.86 71.4291L553.959 115.004C568.358 112.989 575.366 100.235 574.953 89.7598L530.987 91.4924ZM547.86 71.4291L547.622 71.4623L553.721 115.038L553.959 115.004L547.86 71.4291ZM548.615 71.3464L540.721 72.0876L544.835 115.895L552.729 115.154L548.615 71.3464ZM520.991 97.0406C521.824 102.994 523.164 110.047 525.877 116.347C528.472 122.373 534.315 132.17 546.573 135.544L558.249 93.1212C561.431 93.997 563.667 95.7222 564.957 97.1222C566.099 98.3612 566.413 99.2323 566.288 98.9428C566.186 98.7039 565.905 97.9518 565.556 96.4709C565.215 95.0273 564.882 93.2025 564.566 90.9419L520.991 97.0406ZM546.171 135.429C546.495 135.525 546.833 135.62 546.928 135.647C547.09 135.693 547.061 135.686 546.98 135.661C546.905 135.637 545.897 135.338 544.59 134.687C543.266 134.028 540.818 132.614 538.495 129.934C535.945 126.994 534.242 123.325 533.689 119.376L577.264 113.277C576.62 108.674 574.662 104.481 571.738 101.109C569.039 97.9967 566.097 96.2432 564.203 95.3001C562.326 94.3655 560.673 93.8382 559.921 93.6068C559.741 93.5513 557.911 93.0171 558.65 93.2359L546.171 135.429ZM533.689 119.376C533.458 117.727 533.473 116.406 533.501 115.681C533.53 114.904 533.599 114.301 533.641 113.977C533.711 113.426 533.8 112.981 533.738 113.314L577.006 121.308C577.014 121.267 577.171 120.45 577.285 119.558C577.36 118.971 577.704 116.419 577.264 113.277L533.689 119.376ZM450.4 139.52H449.08V183.52H450.4V139.52ZM449.08 139.52C449.08 139.52 449.114 139.52 449.175 139.522C449.236 139.523 449.335 139.527 449.465 139.534C449.715 139.549 450.156 139.584 450.731 139.674C451.853 139.848 453.894 140.29 456.242 141.513C458.762 142.825 460.937 144.672 462.61 146.85C464.16 148.867 464.92 150.699 465.266 151.678L423.774 166.322C425.315 170.688 428.708 176.782 435.917 180.537C441.672 183.534 447.272 183.52 449.08 183.52V139.52ZM465.09 151.198L459.81 137.278L418.67 152.882L423.95 166.802L465.09 151.198ZM460.111 138.123C460.004 137.801 460.153 138.229 460.3 138.766C460.385 139.08 460.537 139.668 460.674 140.433C460.803 141.147 461 142.455 461 144.12H417C417 147.293 417.695 149.773 417.85 150.344C418.087 151.211 418.356 151.999 418.369 152.037L460.111 138.123ZM461 144.12C461 149.086 459.152 153.971 455.767 157.741C452.801 161.043 449.573 162.489 447.93 163.089C446.194 163.723 444.825 163.921 444.22 163.993C443.535 164.074 443.045 164.08 442.84 164.08V120.08C441.526 120.08 437.371 120.102 432.83 121.761C430.407 122.646 426.489 124.489 423.028 128.343C419.148 132.664 417 138.254 417 144.12H461ZM443.213 164.077C450.016 163.962 457.22 162.263 463.384 157.921C469.42 153.669 475.28 146.012 475.28 135.72H431.28C431.28 128.308 435.46 123.771 438.046 121.949C440.76 120.037 442.744 120.078 442.467 120.083L443.213 164.077ZM475.28 135.72C475.28 128.316 471.869 122.918 470.863 121.333C469.554 119.271 467.908 117.219 467.406 116.573L432.674 143.587C433.191 144.252 433.433 144.558 433.678 144.884C433.904 145.184 433.865 145.15 433.717 144.917C433.591 144.718 433.081 143.905 432.571 142.624C432.068 141.361 431.28 138.941 431.28 135.72H475.28ZM466.392 115.363L463.152 111.763L430.448 141.197L433.688 144.797L466.392 115.363ZM463.316 111.946C461.715 110.128 461.189 109.108 461.089 108.89C461.029 108.761 461.36 109.454 461.36 110.76H417.36C417.36 122.663 423.056 132.8 430.284 141.014L463.316 111.946ZM461.36 110.76C461.36 113.075 460.408 114.835 459.796 115.595C459.39 116.099 459.546 115.686 461.098 114.895C464.346 113.239 469.629 112 474.64 112V68C463.931 68 451.574 70.3615 441.112 75.6954C431.223 80.7372 417.36 91.7677 417.36 110.76H461.36ZM474.64 112C475.549 112 475.649 112.029 475.347 111.999C475.099 111.974 473.498 111.815 471.376 110.979C468.896 110.002 466.246 108.317 464.024 105.765C462.029 103.475 461.14 101.344 460.856 100.614L501.864 84.6662C501.16 82.8562 499.806 79.855 497.204 76.8671C494.374 73.6179 490.974 71.4083 487.504 70.041C482.078 67.9036 476.53 68 474.64 68V112ZM460.849 100.597L466.249 114.517L507.271 98.6033L501.871 84.6833L460.849 100.597ZM467.083 116.399C466.151 114.535 465.533 112.547 465.226 110.55C464.963 108.845 465 107.412 465 107.76H509C509 106.769 509.092 102.031 506.437 96.7213L467.083 116.399ZM465 107.76C465 104.243 465.937 100.323 468.259 96.7091C470.5 93.2192 473.35 91.0682 475.649 89.8202C479.746 87.596 483.252 87.56 484.12 87.56V131.56C486.548 131.56 491.494 131.284 496.641 128.49C503.2 124.929 509 117.62 509 107.76H465ZM484.12 87.56H483.64V131.56H484.12V87.56ZM483.64 87.56C478.044 87.56 471.295 88.4206 465.123 91.9144C458.352 95.7469 451.68 103.439 451.68 114.36H495.68C495.68 118.15 494.542 121.751 492.585 124.716C490.697 127.577 488.439 129.277 486.797 130.206C483.805 131.899 482.036 131.56 483.64 131.56V87.56ZM451.68 114.36C451.68 122.203 455.268 127.879 457.136 130.544C459.064 133.295 461.58 136.108 463.726 138.48L496.354 108.96C495.258 107.749 494.476 106.867 493.896 106.182C493.295 105.474 493.125 105.23 493.164 105.286C493.183 105.313 493.767 106.13 494.358 107.555C495.012 109.135 495.68 111.476 495.68 114.36H451.68ZM463.849 138.615C465.505 140.415 466.114 141.507 466.261 141.811C466.391 142.081 465.96 141.308 465.96 139.68H509.96C509.96 127.389 503.654 116.894 496.23 108.825L463.849 138.615ZM465.96 139.68C465.96 137.21 467.021 135.498 467.469 134.962C467.708 134.675 467.272 135.282 465.371 136.233C461.44 138.198 455.494 139.52 450.4 139.52V183.52C461.386 183.52 474.22 181.002 485.049 175.587C495 170.612 509.96 159.422 509.96 139.68H465.96ZM396.52 98.36C396.52 101.776 395.02 104.926 391.114 107.924C386.782 111.249 381.266 112.84 377.72 112.84V156.84C391.214 156.84 406.098 151.891 417.906 142.826C430.14 133.434 440.52 118.344 440.52 98.36H396.52ZM377.72 112.84C373.197 112.84 369.395 111.2 366.899 108.91C364.589 106.79 363 103.801 363 99.56H319C319 134.573 347.829 156.84 377.72 156.84V112.84ZM363 99.56C363 93.1524 365.165 89.978 367.299 88.1261C369.848 85.9138 374.316 84 380.6 84V40C365.763 40 350.432 44.5062 338.461 54.8939C326.075 65.642 319 81.2476 319 99.56H363ZM380.6 84C387.501 84 390.89 86.4343 392.853 88.7078C395.324 91.5696 396.52 95.4534 396.52 98.36H440.52C440.52 85.6666 436.016 71.3704 426.157 59.9522C415.79 47.9457 400.219 40 380.6 40V84ZM380.6 133.92C391.617 133.92 401.113 129.072 407.319 121.119C412.993 113.849 414.96 105.308 414.96 98.12H370.96C370.96 97.7717 371.007 96.1312 372.631 94.0506C373.523 92.9073 374.816 91.7638 376.487 90.9493C378.169 90.1295 379.665 89.92 380.6 89.92V133.92ZM414.96 98.12C414.96 95.9828 414.853 88.18 410.737 80.2102C408.507 75.8924 404.89 71.1226 399.224 67.5076C393.475 63.8397 386.927 62.2 380.24 62.2V106.2C379.672 106.2 377.775 106.015 375.558 104.601C373.425 103.24 372.223 101.523 371.643 100.4C371.121 99.3893 371.011 98.7086 370.995 98.6139C370.969 98.4542 370.96 98.3204 370.96 98.12H414.96ZM380.24 62.2C370.336 62.2 358.62 66.357 350.894 69.9117C346.643 71.8678 342.003 74.3679 338.049 77.3156C336.116 78.7566 333.611 80.8444 331.379 83.6073C329.492 85.943 325.5 91.5629 325.5 99.6452H369.5C369.5 103.166 368.582 105.934 367.782 107.692C366.988 109.438 366.115 110.627 365.608 111.255C364.655 112.435 363.998 112.852 364.347 112.592C364.957 112.137 366.612 111.114 369.286 109.883C371.826 108.715 374.577 107.685 376.994 106.985C378.188 106.639 379.146 106.418 379.837 106.294C380.594 106.158 380.683 106.2 380.24 106.2V62.2ZM325.5 99.6452C325.5 114.201 336.682 121.699 340.404 123.929C345.487 126.974 351.204 128.881 355.67 130.105C364.615 132.557 374.866 133.92 380.6 133.92V89.92C380.662 89.92 380.228 89.9159 379.215 89.8234C378.282 89.7381 377.097 89.5998 375.746 89.4009C372.994 88.9959 369.969 88.4016 367.3 87.6701C365.98 87.3081 364.898 86.9537 364.071 86.6354C363.199 86.2999 362.905 86.1173 363.016 86.1837C363.092 86.2292 363.39 86.4123 363.825 86.7649C364.253 87.1115 364.953 87.7357 365.727 88.6904C367.338 90.6763 369.5 94.448 369.5 99.6452H325.5ZM294.485 127.425L271.006 122.873L262.63 166.068L286.11 170.621L294.485 127.425ZM272.192 123.137C276.152 124.134 280.313 126.588 283.268 130.859C286.396 135.38 287.602 141.219 286.178 146.872L243.511 136.125C239.54 151.89 251.031 163.181 261.445 165.804L272.192 123.137ZM286.436 145.717L298.419 84.386L255.236 75.9488L243.253 137.28L286.436 145.717ZM298.161 85.5408C296.055 93.9022 286.856 102.658 274.426 99.5272L285.173 56.8598C270.183 53.0843 258.303 63.6398 255.494 74.7939L298.161 85.5408ZM275.535 99.7763L289.209 102.478L297.738 59.3125L284.064 56.6108L275.535 99.7763ZM294.754 102.858C299.445 102.584 303.478 103.009 306.986 103.892L317.733 61.2248C309.604 59.1774 301.066 58.4151 292.193 58.9326L294.754 102.858ZM306.986 103.892C309.278 104.469 311.473 105.31 313.5 106.337L333.381 67.0847C328.604 64.665 323.354 62.6406 317.733 61.2248L306.986 103.892ZM312.752 105.94C311.196 105.075 307.645 102.721 305.283 97.8813C302.74 92.6719 303.092 87.7431 303.847 84.7457L346.515 95.4926C347.621 91.0988 347.918 84.9184 344.824 78.5802C341.911 72.612 337.314 69.252 334.13 67.482L312.752 105.94ZM303.847 84.7457C304.229 83.2307 304.703 82.1506 304.854 81.8142C304.931 81.6418 304.982 81.5376 304.942 81.6209C304.916 81.6758 304.912 81.6838 304.859 81.7933C304.819 81.8751 304.764 81.99 304.702 82.1203L344.433 101.026C344.468 100.953 344.45 100.991 344.573 100.736C344.654 100.568 344.821 100.222 345.004 99.8129C345.367 99.0039 346.016 97.473 346.515 95.4926L303.847 84.7457ZM304.754 82.0121L297.246 97.5697L336.874 116.692L344.381 101.134L304.754 82.0121ZM297.326 97.4066C298.89 94.2329 301.823 90.7713 306.405 88.6806C310.912 86.6247 315.411 86.6271 318.909 87.5081L308.162 130.175C313.056 131.408 318.938 131.326 324.668 128.712C330.474 126.063 334.471 121.57 336.794 116.855L297.326 97.4066ZM318.909 87.5081C319.961 87.7732 320.78 88.0693 321.283 88.2662C321.802 88.4698 322.195 88.6507 322.41 88.7533C322.763 88.9211 323.022 89.0651 322.701 88.8932L301.927 127.68C302.042 127.742 302.737 128.119 303.504 128.484C304.173 128.802 305.898 129.605 308.162 130.175L318.909 87.5081ZM323.806 89.5268C320.489 87.4949 316.553 85.6771 312.104 84.5565L301.357 127.224C301.096 127.158 300.932 127.093 300.862 127.063C300.792 127.032 300.782 127.022 300.822 127.046L323.806 89.5268ZM312.104 84.5565C308.337 83.6078 304.795 83.3046 301.473 83.2988L301.395 127.299C301.74 127.299 301.853 127.315 301.805 127.31C301.781 127.307 301.723 127.3 301.64 127.285C301.556 127.27 301.46 127.25 301.357 127.224L312.104 84.5565ZM279.843 101.076L271.678 142.827L314.861 151.271L323.025 109.521L279.843 101.076ZM271.936 141.675L271.877 141.908L314.544 152.656L314.603 152.423L271.936 141.675ZM271.877 141.908C274.522 131.406 285.168 125.044 295.671 127.689L284.924 170.357C297.986 173.647 311.255 165.717 314.545 152.655L271.877 141.908ZM211.122 145.908L211.185 146.505L254.945 141.916L254.882 141.319L211.122 145.908ZM211.185 146.505C211.018 144.913 210.98 142.183 212.045 138.944C213.184 135.477 215.282 132.378 218.061 130.02C220.65 127.823 223.204 126.792 224.782 126.302C226.332 125.821 227.515 125.688 227.861 125.652L232.45 169.412C233.959 169.254 240.579 168.619 246.529 163.569C254.153 157.1 255.607 148.23 254.945 141.916L211.185 146.505ZM230.155 147.532C226.402 125.855 226.402 125.855 226.402 125.855C226.401 125.855 226.401 125.855 226.401 125.855C226.401 125.855 226.4 125.855 226.399 125.855C226.397 125.855 226.394 125.856 226.389 125.857C226.38 125.858 226.367 125.861 226.349 125.864C226.313 125.87 226.26 125.879 226.189 125.891C226.049 125.916 225.841 125.951 225.575 125.997C225.044 126.089 224.28 126.22 223.355 126.379C221.503 126.697 219.009 127.123 216.436 127.557C213.854 127.992 211.228 128.43 209.097 128.773C206.633 129.171 205.616 129.312 205.681 129.305L210.27 173.065C212.531 172.828 219.063 171.735 223.753 170.944C226.382 170.501 228.919 170.068 230.796 169.745C231.736 169.584 232.512 169.451 233.054 169.357C233.325 169.31 233.538 169.274 233.683 169.248C233.756 169.236 233.812 169.226 233.85 169.22C233.869 169.216 233.883 169.214 233.893 169.212C233.898 169.211 233.902 169.211 233.905 169.21C233.906 169.21 233.907 169.21 233.908 169.21C233.908 169.21 233.908 169.209 233.909 169.209C233.909 169.209 233.909 169.209 230.155 147.532ZM205.681 129.305L205.443 129.33L210.031 173.09L210.269 173.065L205.681 129.305ZM205.442 129.33C210.784 128.77 215.952 130.535 219.767 133.8C223.353 136.869 225.302 140.829 225.969 144.585L182.647 152.28C184.507 162.748 194.349 174.735 210.031 173.09L205.442 129.33ZM226.078 145.257C224.24 132.657 221.851 118.677 220.015 104.601L176.385 110.291C178.244 124.544 180.944 140.678 182.539 151.609L226.078 145.257ZM197.123 85.4726L188.48 85.8964L190.635 129.844L199.277 129.42L197.123 85.4726ZM189.253 85.8721C199.456 85.731 207.742 93.3475 208.775 103.2L165.015 107.789C166.324 120.267 177.007 130.046 189.861 129.868L189.253 85.8721ZM208.883 104.784L208.238 84.8221L164.261 86.2442L164.906 106.206L208.883 104.784ZM208.247 85.2289C208.38 94.8007 201.275 103.665 190.919 104.751L186.33 60.9909C173.11 62.3773 164.083 73.6149 164.252 85.8374L208.247 85.2289ZM189.786 104.84L196.746 104.472L194.423 60.5337L187.463 60.9015L189.786 104.84ZM217.578 81.9842L217.473 77.5309L173.485 78.5684L173.59 83.0218L217.578 81.9842ZM217.479 78.0025C217.467 72.5062 219.154 70.5445 220.13 69.6378C221.625 68.2481 224.451 66.8469 228.526 66.4195L223.937 22.6594C212.856 23.8215 200.282 28.017 190.178 37.4059C179.555 47.2777 173.443 61.2764 173.479 78.0969L217.479 78.0025ZM228.526 66.4195C230.844 66.1765 233.099 66.3229 234.866 66.6782L243.538 23.5413C237.417 22.3107 230.691 21.9512 223.937 22.6594L228.526 66.4195ZM236.518 66.9454C228.483 65.9577 223.779 60.7083 221.795 57.2482C220.08 54.2572 219.701 51.6813 219.582 50.5458L263.342 45.9566C263.098 43.6276 262.383 39.5787 259.967 35.3641C257.282 30.6805 251.511 24.4572 241.886 23.2741L236.518 66.9454ZM219.582 50.5458L219.632 51.0232L263.392 46.434L263.342 45.9566L219.582 50.5458ZM219.542 47.5826L218.821 61.4133L262.761 63.7052L263.482 49.8746L219.542 47.5826ZM218.795 62.1223C218.915 56.1021 221.78 51.6118 224.545 48.9944C227.115 46.5609 230.696 44.6344 235.122 44.1702L239.711 87.9302C245.688 87.3034 250.938 84.5986 254.797 80.944C258.851 77.1054 262.628 70.951 262.786 62.9963L218.795 62.1223ZM235.122 44.1702L234.764 44.2078L239.353 87.9678L239.711 87.9302L235.122 44.1702ZM234.764 44.2078C229.98 44.7094 221.266 46.3021 213.685 52.6066C204.652 60.1181 200.76 71.2652 202.02 83.276L245.78 78.6868C245.77 78.5894 245.905 79.7946 245.204 81.6677C244.467 83.6382 243.2 85.2882 241.817 86.4379C240.57 87.4747 239.545 87.8535 239.261 87.9485C238.971 88.046 238.978 88.0071 239.353 87.9678L234.764 44.2078ZM224.906 102.958L235.113 102.491L233.101 58.5373L222.894 59.0044L224.906 102.958ZM236.402 102.394C223.654 103.731 215.789 93.7598 214.889 85.1841L258.649 80.595C257.45 69.155 247.186 57.0221 231.812 58.6343L236.402 102.394ZM214.781 83.6006L215.426 103.562L259.403 102.14L258.758 82.1786L214.781 83.6006ZM215.415 102.957C215.376 94.8854 221.137 84.73 232.971 83.489L237.56 127.249C252.02 125.733 259.465 113.229 259.414 102.745L215.415 102.957ZM232.971 83.489L232.732 83.514L237.322 127.274L237.56 127.249L232.971 83.489ZM233.671 83.4358L225.28 83.9539L227.991 127.87L236.383 127.352L233.671 83.4358ZM204.856 109.022C206.732 122.155 209.239 136.618 211.403 147.795L254.601 139.432C252.553 128.85 250.172 115.109 248.414 102.802L204.856 109.022ZM155.352 137.121L132.013 131.396L121.532 174.13L144.87 179.854L155.352 137.121ZM133.074 131.685L132.844 131.616L120.241 173.773L120.471 173.841L133.074 131.685ZM132.844 131.616C144.79 135.187 147.976 146.752 146.493 154.074L103.368 145.341C101.359 155.261 105.766 169.445 120.242 173.773L132.844 131.616ZM146.304 154.92L160.168 98.0689L117.421 87.6444L103.557 144.495L146.304 154.92ZM159.873 99.1578C158.652 103.24 155.871 107.375 151.365 110.111C146.818 112.873 141.722 113.469 137.321 112.543L146.379 69.4859C133.41 66.7575 121.3 74.5676 117.716 86.5555L159.873 99.1578ZM136.609 112.381L159.948 118.106L170.429 75.3722L147.091 69.648L136.609 112.381ZM158.887 117.817L159.117 117.886L171.72 75.7294L171.49 75.6607L158.887 117.817ZM159.117 117.886C153.349 116.162 149.476 112.25 147.384 108.373C145.291 104.496 144.147 99.1119 145.871 93.344L188.028 105.946C191.852 93.1554 184.51 79.5531 171.719 75.7293L159.117 117.886ZM145.577 94.4307L131.678 151.397L174.425 161.826L188.323 104.86L145.577 94.4307ZM131.973 150.31L131.904 150.54L174.061 163.142L174.13 162.912L131.973 150.31ZM131.904 150.54C133.642 144.728 137.542 140.995 141.075 139.007C144.591 137.029 149.224 135.909 154.283 136.887L145.938 180.088C156.943 182.214 170.121 176.323 174.061 163.142L131.904 150.54ZM154.001 72.8539C154.697 70.5255 157.098 69.2293 159.427 69.9254L146.824 112.082C167.778 118.346 189.893 106.41 196.157 85.4562L154.001 72.8539ZM159.427 69.9254C154.695 68.5109 149.281 66.7096 145.622 64.7392C143.66 63.6824 143.986 63.5025 144.995 64.7138C145.623 65.4675 146.829 67.1471 147.565 69.78C148.364 72.6378 148.358 75.7568 147.495 78.6451L105.338 66.0428C101.902 77.5381 106.433 87.1651 111.184 92.8703C115.466 98.013 120.876 101.388 124.761 103.479C132.795 107.806 142.128 110.678 146.824 112.082L159.427 69.9254ZM147.495 78.6451C146.742 81.1641 145.595 82.6311 145.202 83.0937C144.778 83.5943 144.63 83.6334 145.057 83.3202C145.953 82.6621 147.761 81.6289 150.338 80.6263C152.853 79.648 155.34 78.9952 157.249 78.7035C158.187 78.5602 158.728 78.544 158.884 78.5455C159.136 78.5479 158.363 78.5835 156.964 78.1651L169.566 36.0084C162.593 33.9238 155.476 34.4638 150.603 35.2083C145.16 36.0401 139.553 37.61 134.386 39.6198C129.282 41.6054 123.821 44.3257 119.017 47.8526C114.829 50.9278 108.098 56.809 105.338 66.0428L147.495 78.6451ZM156.964 78.1651C154.542 77.4412 153.367 74.9742 154.001 72.8539L196.157 85.4562C202.428 64.4805 190.613 42.3002 169.566 36.0084L156.964 78.1651ZM65.4128 145.08L43.9314 62.2652L1.34088 73.3128L22.8223 156.127L65.4128 145.08ZM44.1894 63.3778L44.1412 63.1427L1.03478 71.965L1.0829 72.2002L44.1894 63.3778ZM44.1412 63.1426C46.4157 74.2558 38.919 83.9728 29.1738 85.9673L20.3514 42.8609C7.54961 45.481 -1.81717 58.0304 1.03479 71.9651L44.1412 63.1426ZM30.4641 85.6624L43.933 82.0484L32.53 39.5517L19.0611 43.1657L30.4641 85.6624ZM50.3873 79.1368C53.9034 76.8059 59.5675 74.3573 65.9704 73.0468L57.148 29.9404C45.9165 32.2391 34.8549 36.6433 26.0757 42.4633L50.3873 79.1368ZM65.9704 73.0468C76.0397 70.986 80.9737 72.7843 82.813 73.8382C84.5637 74.8414 85.4408 76.2133 85.7844 77.8923L128.891 69.0699C126.179 55.8184 118.098 43.3453 104.689 35.6617C91.3685 28.0289 74.9411 26.2987 57.148 29.9404L65.9704 73.0468ZM85.7844 77.8923C85.8668 78.295 85.8617 78.6512 85.7355 79.1329C85.5887 79.6931 85.2384 80.5313 84.5085 81.5544L120.328 107.107C127.043 97.6952 132.015 84.3359 128.891 69.0699L85.7844 77.8923ZM92.1463 113.786C92.914 114.191 93.4153 114.473 93.7809 114.695C94.1312 114.907 94.2766 115.016 94.3039 115.037C94.3196 115.049 94.2472 114.994 94.1387 114.881C94.0278 114.765 93.9549 114.667 93.9277 114.627L130.325 89.9039C124.608 81.4874 117.46 77.3946 112.69 74.8762L92.1463 113.786ZM94.1313 114.922C95.6285 117.05 96.0441 118.446 96.1349 118.89L139.241 110.067C137.744 102.752 134.498 95.8324 130.122 89.6094L94.1313 114.922ZM96.1349 118.89C96.2269 119.339 96.2115 119.581 96.0053 120.074C95.7126 120.774 94.8816 122.187 92.8219 124.032C88.5175 127.888 81.0657 131.609 72.2031 133.423L81.0255 176.53C95.6755 173.531 110.806 166.996 122.183 156.803C133.784 146.409 143.34 130.095 139.241 110.067L96.1349 118.89ZM72.2031 133.423C71.3569 133.596 69.4589 133.916 67.0282 134.164C64.6038 134.412 62.0884 134.542 59.8914 134.476C57.4556 134.404 56.5735 134.119 56.8135 134.2C57.0131 134.268 58.1226 134.654 59.5594 135.743C61.1085 136.918 63.0833 138.961 64.3871 142.051L23.848 159.156C28.2967 169.7 37.4479 174.102 42.7357 175.887C48.3747 177.792 54.1593 178.325 58.5788 178.457C67.5652 178.725 76.5502 177.446 81.0255 176.53L72.2031 133.423ZM34.7715 82.253L40.0643 102.728L82.6639 91.7152L77.3711 71.2407L34.7715 82.253ZM66.6507 118.577C69.0906 117.973 77.0887 116.131 84.1966 111.978C87.8932 109.818 92.8759 106.187 96.5553 100.319C100.628 93.8237 102.215 85.9558 100.548 77.8105L57.4414 86.6329C57.1756 85.3345 57.0775 83.6423 57.427 81.7386C57.7756 79.8397 58.4802 78.2158 59.2769 76.9452C60.043 75.7232 60.8167 74.9465 61.2811 74.537C61.5198 74.3265 61.7081 74.1852 61.8232 74.1039C61.8821 74.0622 61.9268 74.0327 61.9553 74.0144C61.9697 74.0052 61.9805 73.9985 61.9876 73.9941C61.9947 73.9898 61.9983 73.9877 61.9984 73.9877C61.9984 73.9877 61.995 73.9896 61.9882 73.9934C61.9814 73.9972 61.9714 74.0027 61.9581 74.0098C61.9312 74.0243 61.8926 74.0443 61.8415 74.0695C61.7375 74.1208 61.5948 74.187 61.4097 74.2656C61.0305 74.4264 60.5508 74.606 59.9665 74.7976C58.7458 75.1977 57.5198 75.509 56.0776 75.866L66.6507 118.577ZM100.548 77.8105C98.7864 69.2044 93.443 61.0691 84.5622 56.2852C76.0242 51.6861 66.5705 51.407 58.0992 53.1408L66.9217 96.2473C68.5608 95.9118 66.7957 96.6926 63.6955 95.0226C60.2525 93.1679 58.0959 89.8311 57.4414 86.6329L100.548 77.8105ZM58.0992 53.1408C54.383 53.9014 50.6563 55.0686 47.0895 56.6638L65.053 96.8299C65.526 96.6183 66.1705 96.401 66.9217 96.2473L58.0992 53.1408ZM44.7369 120.767L49.4069 138.797L92.0013 127.765L87.3313 109.735L44.7369 120.767ZM72.0229 155.241C74.6235 155.085 77.2196 154.771 79.89 154.224L71.0676 111.118C70.6814 111.197 70.1727 111.273 69.3853 111.32L72.0229 155.241ZM79.89 154.224C87.0059 152.768 94.7651 149.629 100.909 143.772C107.476 137.513 112.545 127.451 110.107 115.54L67.0006 124.362C66.4712 121.776 66.6878 119.033 67.5989 116.561C68.463 114.216 69.7199 112.715 70.5502 111.924C72.0313 110.512 72.6513 110.794 71.0676 111.118L79.89 154.224ZM110.107 115.54C108.035 105.418 101.356 97.0871 91.3128 93.2332C82.9088 90.0083 74.2967 90.7366 67.7815 92.07L76.604 135.176C79.4939 134.585 78.4367 135.421 75.5492 134.313C73.8137 133.647 71.692 132.36 69.8852 130.189C68.0988 128.044 67.3076 125.862 67.0006 124.362L110.107 115.54ZM67.7815 92.07C64.8321 92.6737 61.8371 93.4461 58.9836 94.4115L73.0846 136.091C73.8969 135.816 75.0861 135.487 76.604 135.176L67.7815 92.07ZM141.453 32.1449L139.613 30.4225L109.541 62.5417L111.38 64.264L141.453 32.1449ZM143.885 57.0261C147.292 50.7872 148.881 43.7178 148.471 36.6211L104.544 39.16C104.479 38.0395 104.73 36.9233 105.268 35.9382L143.885 57.0261ZM148.471 36.6211C148.061 29.5245 145.668 22.6852 141.565 16.8804L105.634 42.277C104.987 41.3604 104.609 40.2805 104.544 39.16L148.471 36.6211ZM141.565 16.8804C137.462 11.0755 131.813 6.53795 125.26 3.78321L108.209 44.345C107.174 43.91 106.282 43.1935 105.634 42.277L141.565 16.8804ZM125.26 3.78321C118.707 1.02847 111.513 0.167037 104.495 1.2968L111.488 44.7375C110.38 44.9159 109.244 44.7799 108.209 44.345L125.26 3.78321ZM104.495 1.2968C97.4766 2.42656 90.9161 5.50221 85.5586 10.1743L114.478 43.3358C113.632 44.0735 112.596 44.5592 111.488 44.7375L104.495 1.2968ZM85.5586 10.1743C80.2012 14.8463 76.2616 20.9274 74.1875 27.7266L116.273 40.5644C115.946 41.638 115.324 42.5981 114.478 43.3358L85.5586 10.1743ZM74.1875 27.7266C72.1135 34.5258 71.9882 41.7704 73.8258 48.6373L116.33 37.2627C116.62 38.347 116.601 39.4909 116.273 40.5644L74.1875 27.7266ZM73.8258 48.6373C75.6635 55.5041 79.3904 61.7179 84.583 66.5724L114.632 34.4309C115.452 35.1974 116.04 36.1785 116.33 37.2627L73.8258 48.6373ZM84.5711 66.5612L97.7107 78.8636L127.783 46.7445L114.644 34.4421L84.5711 66.5612ZM97.7107 78.8636C103.906 84.6642 112.152 87.7661 120.634 87.487L119.187 43.5108C122.368 43.4061 125.46 44.5693 127.783 46.7445L97.7107 78.8636ZM120.634 87.487C129.116 87.2078 137.141 83.5705 142.941 77.3752L110.822 47.3026C112.997 44.9794 116.006 43.6154 119.187 43.5108L120.634 87.487ZM142.941 77.3752C148.742 71.18 151.843 62.9342 151.564 54.4518L107.588 55.8989C107.484 52.7181 108.647 49.6259 110.822 47.3026L142.941 77.3752ZM151.564 54.4518C151.285 45.9695 147.648 37.9455 141.453 32.1449L111.38 64.264C109.057 62.0888 107.693 59.0798 107.588 55.8989L151.564 54.4518ZM449.207 157.925L451.289 141.082L407.621 135.686L405.539 152.528L449.207 157.925ZM432.153 116.55L415.311 114.469L409.914 158.136L426.756 160.218L432.153 116.55ZM378.163 143.445L376.081 160.287L419.749 165.684L421.83 148.842L378.163 143.445ZM395.217 184.82L412.059 186.901L417.456 143.233L400.613 141.152L395.217 184.82ZM456.321 47.2008C455.989 46.4246 455.776 45.7885 455.652 45.3873C455.522 44.9665 455.437 44.6314 455.385 44.4127C455.284 43.9898 455.247 43.7397 455.244 43.7217C455.238 43.6853 455.28 43.9717 455.309 44.5707C455.368 45.787 455.329 47.3674 455.133 48.8427C455.039 49.5538 454.926 50.0969 454.828 50.465C454.726 50.8506 454.687 50.8643 454.812 50.6047C454.959 50.3 456.509 47.2042 460.853 45.3476L478.147 85.8061C487.061 81.9957 491.941 74.926 494.47 69.6642C497.021 64.3562 498.183 58.903 498.749 54.6423C499.336 50.231 499.428 45.9786 499.258 42.453C499.173 40.681 499.011 38.8691 498.748 37.1367C498.565 35.9271 498.092 32.9776 496.779 29.9062L456.321 47.2008ZM460.853 45.3476C462.942 44.4545 464.769 44.2642 465.936 44.2709C467.055 44.2774 467.702 44.4611 467.761 44.4777C467.84 44.5001 467.634 44.4466 467.141 44.2089C466.664 43.9787 466.065 43.6469 465.376 43.2068C463.949 42.2958 462.619 41.2305 461.721 40.3991C461.27 39.9823 461.125 39.8061 461.22 39.916C461.266 39.9702 461.505 40.2474 461.84 40.7232C462.013 40.969 462.267 41.3455 462.557 41.8372C462.834 42.3064 463.252 43.0627 463.677 44.0563L423.218 61.351C424.804 65.0607 427.137 67.7688 427.913 68.6677C429.146 70.0966 430.506 71.4628 431.844 72.7009C434.524 75.1795 437.912 77.8746 441.693 80.2895C445.367 82.6359 450.219 85.2375 455.751 86.807C461.084 88.3199 469.437 89.5295 478.147 85.8061L460.853 45.3476ZM463.677 44.0563C467.137 52.1496 464.117 58.7515 463.143 60.536C462.019 62.5977 460.954 63.43 461.228 63.1869C461.595 62.8616 463.287 61.6237 466.288 60.3408L448.993 19.8822C442.853 22.5067 436.797 26.0415 432.027 30.2736C429.733 32.3092 426.753 35.3664 424.517 39.4643C422.433 43.285 419.108 51.7342 423.218 61.351L463.677 44.0563ZM466.288 60.3408C469.289 59.0578 471.353 58.6905 471.841 58.6503C472.206 58.6202 470.869 58.8144 468.602 58.2028C466.639 57.6734 459.78 55.2941 456.321 47.2008L496.779 29.9062C492.669 20.2894 484.263 16.8547 480.061 15.7212C475.554 14.5055 471.285 14.547 468.228 14.7989C461.873 15.3225 455.133 17.2577 448.993 19.8822L466.288 60.3408ZM461.824 60.074C458.394 52.05 461.341 45.4846 462.338 43.645C463.469 41.559 464.549 40.7103 464.286 40.9436C463.94 41.2512 462.257 42.4881 459.213 43.7895L476.507 84.2481C482.658 81.619 488.725 78.0861 493.502 73.8435C495.801 71.8017 498.787 68.7328 501.02 64.6137C503.119 60.741 506.365 52.3298 502.282 42.7793L461.824 60.074ZM459.213 43.7895C456.168 45.091 454.112 45.4522 453.65 45.4901C453.3 45.5188 454.66 45.3245 456.949 45.9486C458.968 46.499 465.75 48.9055 469.18 56.9295L428.721 74.2242C432.804 83.7746 441.126 87.2409 445.376 88.3995C449.897 89.6318 454.178 89.5942 457.243 89.3431C463.611 88.8214 470.357 86.8772 476.507 84.2481L459.213 43.7895ZM423.218 61.351L434.224 87.0973L474.683 69.8027L463.677 44.0563L423.218 61.351ZM434.224 87.0973C438.307 96.6477 446.629 100.114 450.879 101.273C455.4 102.505 459.681 102.467 462.746 102.216C469.114 101.695 475.86 99.7504 482.01 97.1213L464.716 56.6627C461.671 57.9642 459.615 58.3254 459.153 58.3632C458.803 58.3919 460.162 58.1977 462.452 58.8218C464.471 59.3721 471.253 61.7787 474.683 69.8027L434.224 87.0973ZM482.01 97.1213C488.161 94.4922 494.228 90.9593 499.005 86.7167C501.304 84.6749 504.29 81.606 506.523 77.4869C508.622 73.6142 511.868 65.2029 507.785 55.6525L467.327 72.9472C463.897 64.9231 466.843 58.3578 467.841 56.5181C468.971 54.4321 470.051 53.5835 469.789 53.8168C469.442 54.1244 467.76 55.3612 464.716 56.6627L482.01 97.1213ZM507.785 55.6525L496.779 29.9062L456.321 47.2008L467.327 72.9472L507.785 55.6525Z" fill="#ACCCFF"/>
<path d="M555.372 117.311L551.288 133.15C550.654 135.541 549.75 136.879 547.968 137.128C547.611 137.178 547.255 137.228 546.881 137.159C527.216 136.034 519.097 126.508 514.294 96.5238L505.315 97.2959C503.991 97.36 502.755 96.3213 502.572 95.014L501.237 75.0867C501.173 73.7628 502.093 72.5436 503.519 72.344L511.191 71.7548C510.797 67.2056 510.353 62.2998 509.994 57.1397C509.913 55.697 509.835 53.4057 512.925 52.9733L513.4 52.9067L536.011 50.8327C538.048 50.6688 539.165 51.7241 539.448 53.7444C539.909 58.769 540.284 64.048 540.626 69.0892L548.893 68.4169C550.2 68.2339 551.436 69.2727 551.635 70.6988L552.97 90.6261C553.018 91.8311 552.217 93.0338 550.91 93.2167L550.672 93.25L542.778 93.9912C544.292 104.806 546.866 112.806 552.411 114.332C553.801 114.744 555.294 115.019 555.477 116.327C555.51 116.564 555.441 116.938 555.372 117.311Z" fill="#3E6096"/>
<path d="M450.4 161.52H449.08C446.44 161.52 445.24 161.04 444.52 159L439.24 145.08C439.12 144.72 439 144.36 439 144.12C439 142.32 441.4 142.08 442.84 142.08C449.92 141.96 453.28 138.6 453.28 135.72C453.28 134.16 451.72 132.24 450.04 130.08L446.8 126.48C441.52 120.48 439.36 115.32 439.36 110.76C439.36 97.2 458.92 90 474.64 90C479.32 90 480.52 90.48 481.36 92.64L486.76 106.56C487 107.04 487 107.4 487 107.76C487 109.08 485.68 109.56 484.12 109.56H483.64C476.44 109.56 473.68 111.96 473.68 114.36C473.68 116.4 475.48 118.68 480.04 123.72C485.56 129.72 487.96 135.12 487.96 139.68C487.96 153.84 466.48 161.52 450.4 161.52Z" fill="#3E6096"/>
<path d="M418.52 98.36C418.52 121.76 394.76 134.84 377.72 134.84C358.16 134.84 341 120.68 341 99.56C341 74.84 359.48 62 380.6 62C407.12 62 418.52 82.76 418.52 98.36ZM380.6 111.92C389.12 111.92 392.96 104.96 392.96 98.12C392.96 95.84 392.48 84.2 380.24 84.2C370.16 84.2 367.28 92.72 367.28 98.12C367.28 106.4 373.76 111.92 380.6 111.92Z" fill="#3E6096"/>
<path d="M290.297 149.023L266.818 144.47C265.422 144.119 264.493 142.895 264.844 141.498L276.827 80.1674C277.179 78.771 278.519 77.8711 279.799 78.1935L293.474 80.8953C300.256 80.4998 306.541 81.093 312.359 82.5585C316.316 83.555 320.039 84.9877 323.441 86.7108C325.069 87.616 325.533 88.7227 325.181 90.1191C325.064 90.5846 324.83 91.0207 324.567 91.5733L317.06 107.131C316.301 108.672 314.932 109.193 313.535 108.842C313.186 108.754 312.75 108.52 312.314 108.287C310.599 107.236 308.708 106.388 306.73 105.89C305.101 105.48 303.413 105.302 301.434 105.299L293.27 147.049L293.211 147.282C292.889 148.562 291.577 149.345 290.297 149.023Z" fill="#3E6096"/>
<path d="M233.002 143.614L233.065 144.21C233.34 146.836 231.707 147.369 230.155 147.532C230.155 147.532 210.72 150.897 207.975 151.185L207.737 151.21C205.947 151.398 204.603 150.091 204.308 148.433C202.592 136.668 200.048 121.611 198.2 107.446L189.557 107.87C188.232 107.888 187.033 106.808 186.895 105.495L186.249 85.5332C186.231 84.2078 187.193 83.0211 188.625 82.8709L195.584 82.503L195.479 78.0497C195.431 55.733 211.075 46.129 226.232 44.5395C230.767 44.0639 235.258 44.3168 239.202 45.1098C240.791 45.3051 241.337 47.0578 241.462 48.2512L241.512 48.7286L240.791 62.5593C240.752 64.4938 238.968 65.8875 237.417 66.0502L237.058 66.0878C230.972 66.7261 222.711 69.6436 223.9 80.9814L234.107 80.5143C235.42 80.3766 236.619 81.4574 236.769 82.8896L237.415 102.851C237.421 104.057 236.578 105.231 235.266 105.369L235.027 105.394L226.635 105.912C228.452 118.632 230.896 132.734 233.002 143.614Z" fill="#3E6096"/>
<path d="M150.111 158.487L126.773 152.763L126.543 152.694C125.278 152.316 124.668 151.007 124.931 149.708L138.795 92.8566C139.207 91.477 140.436 90.7172 141.85 91.0146L165.188 96.7389L165.418 96.8077C166.568 97.1514 167.293 98.4954 166.95 99.6452L153.052 156.611L152.983 156.841C152.639 157.991 151.295 158.716 150.111 158.487ZM175.079 79.1551C172.295 88.4679 162.438 93.7876 153.126 91.0037C143.698 88.1853 138.378 78.3287 141.162 69.016C143.98 59.5882 153.837 54.2684 163.265 57.0868C172.578 59.8707 177.897 69.7273 175.079 79.1551Z" fill="#3E6096"/>
<path d="M44.1176 150.604L22.6362 67.789L22.588 67.5539C22.2993 66.1431 23.2343 64.7269 24.7626 64.4141L38.2315 60.8C44.3792 56.7246 52.742 53.2982 61.5592 51.4936C89.4217 45.7911 104.282 58.5506 107.338 73.4811C108.95 81.3578 106.511 88.5937 102.418 94.3309C106.264 96.3611 109.497 98.3941 112.126 102.265C115.063 106.441 116.894 110.599 117.688 114.478C121.779 134.464 100.127 150.164 76.6143 154.976C70.0308 156.324 47.6856 159.06 44.1176 150.604ZM56.0713 76.7468L61.3642 97.2214C67.0766 95.8072 81.0639 92.3321 78.9946 82.2217C77.8878 76.8138 72.6209 72.6248 62.5105 74.694C60.2768 75.1512 58.0912 75.8435 56.0713 76.7468ZM66.0341 115.251L70.7041 133.281C72.3981 133.179 73.9505 132.984 75.4788 132.671C84.1785 130.891 89.7569 125.829 88.5539 119.951C87.3027 113.838 81.5978 111.698 72.1928 113.623C69.9591 114.08 67.867 114.631 66.0341 115.251Z" fill="#3E6096"/>
<g clip-path="url(#clip0_5_39)">
<path d="M126.416 48.2045L124.577 46.4821C126.011 43.8552 126.68 40.8786 126.508 37.8906C126.335 34.9025 125.327 32.0228 123.6 29.5787C121.872 27.1345 119.494 25.224 116.735 24.0641C113.975 22.9042 110.946 22.5415 107.991 23.0172C105.036 23.4929 102.274 24.7879 100.018 26.7551C97.7624 28.7222 96.1036 31.2827 95.2303 34.1455C94.3571 37.0083 94.3043 40.0587 95.078 42.95C95.8518 45.8413 97.421 48.4576 99.6074 50.5016L112.747 62.8041C114.683 64.6167 117.26 65.5861 119.911 65.4989C122.561 65.4116 125.069 64.275 126.882 62.339C128.694 60.4029 129.664 57.8261 129.576 55.1754C129.489 52.5246 128.352 50.0171 126.416 48.2045Z" stroke="#3E6096" stroke-width="4" stroke-linecap="round" stroke-linejoin="round"/>
</g>
<g clip-path="url(#clip1_5_39)">
<path d="M427.373 155.226L429.455 138.384L412.612 136.303M399.996 146.143L397.915 162.986L414.757 165.067" stroke="#3E6096" stroke-width="4" stroke-linecap="round" stroke-linejoin="round"/>
</g>
<g clip-path="url(#clip2_5_39)">
<path d="M476.55 38.5535C477.853 41.6005 471.498 47.2382 462.357 51.1457C453.216 55.0531 444.75 55.7507 443.448 52.7037M476.55 38.5535C475.248 35.5065 466.782 36.204 457.641 40.1115C448.5 44.019 442.145 49.6567 443.448 52.7037M476.55 38.5535L487.556 64.2999C488.861 67.3526 482.558 72.9614 473.363 76.892C464.168 80.8226 455.758 81.5028 454.453 78.45L443.448 52.7037M482.053 51.4267C483.358 54.4795 477.055 60.0882 467.86 64.0188C458.665 67.9494 450.256 68.6296 448.951 65.5768" stroke="#3E6096" stroke-width="4" stroke-linecap="round" stroke-linejoin="round"/>
</g>
<defs>
<clipPath id="clip0_5_39">
<rect width="48" height="48" fill="white" transform="translate(113.806 9) rotate(43.1153)"/>
</clipPath>
<clipPath id="clip1_5_39">
<rect width="48" height="48" fill="white" transform="translate(380 146.522) rotate(-37.9548)"/>
</clipPath>
<clipPath id="clip2_5_39">
<rect width="48" height="48" fill="white" transform="translate(434 45.8669) rotate(-23.145)"/>
</clipPath>
</defs>
</svg>
